<svg xmlns="http://www.w3.org/2000/svg" width="256" height="256"><path fill="#1976D2" fill-opacity=".016" fill-rule="evenodd" d="M0 128.004v128.004l128.25-.254 128.25-.254.254-127.75L257.008 0H0zm.485.496c0 70.4.119 99.053.265 63.672s.146-92.98 0-128S.485 58.1.485 128.5"/><path fill="#1976D2" fill-opacity=".239" fill-rule="evenodd" d="M137.5 1.148c-1.1.598-11.9 10.929-24 22.957l-22 21.87-31 .262-31 .263-3 4.688c-1.65 2.578-5.428 9.103-8.395 14.5a1851 1851 0 0 1-11.75 20.954L0 97.784v77.908c0 59.262.287 78.195 1.2 79.108.921.921 30.592 1.2 127.465 1.2 123.811 0 126.285-.038 127.3-1.934.688-1.286 1.035-27.974 1.035-79.596 0-74.391-.079-77.773-1.879-80.316-1.034-1.46-7.147-12.104-13.585-23.654s-12.412-21.788-13.275-22.75c-1.366-1.522-3.562-1.75-16.821-1.75h-15.249l-19.846-19.928C151.466 1.089 150.107-.009 144.112.03c-2.536.017-5.512.52-6.612 1.118M17.144 90.75c-1.091 2.55-1.066 2.609.34.809.834-1.068 1.516-2.305 1.516-2.75 0-1.52-.678-.81-1.856 1.941M238 88.642c0 .537.7 1.849 1.555 2.917 1.467 1.83 1.487 1.798.365-.559-1.458-3.061-1.92-3.628-1.92-2.358M.476 175.5c0 43.45.123 61.079.274 39.176.15-21.904.15-57.454 0-79C.599 114.129.476 132.05.476 175.5m68.576-42.136C67.803 136.649 66.34 137 53.918 137H43v77h59.929c53.147 0 60.106.178 61.5 1.571.864.865 1.571 1.964 1.571 2.443s1.912 1.009 4.25 1.179c3.713.268 4.469-.041 5.985-2.443 1.121-1.776 2.601-2.75 4.179-2.75 2.431 0 5.586 2.3 5.586 4.071 0 .511 1.973.929 4.385.929 3.574 0 4.688-.462 6.023-2.5 1.521-2.321 2.21-2.5 9.615-2.5H214v-77h-55.418c-30.48 0-56.165-.286-57.077-.636s-2.063-1.7-2.557-3c-.736-1.936-1.616-2.364-4.856-2.364-3.08 0-4.098.444-4.592 2.001-1.487 4.684-8.255 5.027-10.307.523-.954-2.093-1.841-2.524-5.196-2.524-3.334 0-4.205.416-4.945 2.364m-13.486 19.964c-.999.73-1.806 2.418-1.795 3.75.037 4.157 11.647 37.311 14.101 40.269 1.792 2.158 5.423 2.11 7.329-.097.831-.963 4.514-10.418 8.183-21.013 7.014-20.25 7.237-22.27 2.617-23.737-4.948-1.57-6.601.725-11.825 16.417l-2.802 8.418-3.176-10.019c-4.428-13.967-7.702-17.593-12.632-13.988m48.934.553c-7.863 3.611-10.51 9.126-10.478 21.837.026 10.536 1.962 15.642 7.541 19.898 3.292 2.511 4.642 2.884 10.437 2.884s7.145-.373 10.437-2.884c5.631-4.295 7.519-9.346 7.519-20.116 0-12.954-2.805-18.45-11.21-21.962-4.837-2.021-9.334-1.913-14.246.343m32.155-.052c-3.769 4.164-.867 8.804 5.845 9.347l4 .324.265 16.5c.225 14.076.51 16.684 1.941 17.75 2.421 1.805 5.004 1.54 7.294-.75 1.833-1.833 2-3.333 2-18v-16h3.845c6.272 0 9.464-5.6 5.326-9.345C165.659 152.287 163 152 151.826 152c-11.824 0-13.723.229-15.171 1.829m44.763-.86c-1.144.463-3.282 2.269-4.75 4.013-2.64 3.139-2.668 3.333-2.668 18.712v15.541l3.882 3.883 3.883 3.882h8.995c9.844 0 11.49-.813 11.49-5.675 0-3.955-2.686-5.325-10.441-5.325H185v-7h4.943c3.975 0 5.249-.436 6.5-2.223 2.058-2.937 1.964-4.37-.443-6.777-1.407-1.407-3.333-2-6.5-2-4.476 0-4.5-.019-4.5-3.5V163h6.809c7.854 0 10.441-1.363 10.441-5.5 0-1.594-.798-3.428-1.816-4.172-2.037-1.49-15.588-1.746-19.016-.359m-74.244 12.345c-1.836 1.955-2.174 3.489-2.174 9.866 0 8.914 2.133 12.82 7 12.82 4.895 0 7-3.897 7-12.961 0-6.746-.284-7.957-2.314-9.865-3.003-2.82-6.782-2.765-9.512.14"/><path fill="#1976D2" fill-opacity=".33" fill-rule="evenodd" d="M137 2.089c-1.925 1.144-12.981 11.519-24.568 23.055L91.364 46.118l-28.646-.087c-15.755-.048-29.71.18-31.01.506-2.692.676-4.077 2.898-22.718 36.463-2.901 5.225-6.111 10.719-7.133 12.21C.087 97.792 0 101.549 0 175.599c0 72.809.11 77.764 1.75 79.009 1.433 1.088 24.412 1.334 126.845 1.36 119.942.031 125.163-.043 126.75-1.797 1.51-1.668 1.655-8.629 1.655-79.5 0-69.497-.167-77.855-1.585-79.421-.872-.963-3.833-5.8-6.579-10.75-19.078-34.389-20.842-37.266-23.253-37.913-1.146-.308-8.387-.566-16.092-.573L195.482 46l-20.491-20.589c-11.27-11.324-22.17-21.674-24.221-23-4.577-2.959-9.157-3.066-13.77-.322M33.635 60.256C26.952 71.882 15 93.268 15 93.6c0 .22 51.075.4 113.5.4s113.5-.18 113.5-.4c0-.332-11.952-21.718-18.635-33.344l-1.865-3.243-11.652-.007L198.196 57l-.992 2.844c-.545 1.564-2.436 4.489-4.201 6.5L189.793 70h9.103c7.771 0 9.397.293 11.104 2 1.1 1.1 2 2.675 2 3.5s-.9 2.4-2 3.5c-1.965 1.965-3.333 2-78.777 2C47.59 81 50 81.163 50 75.5c0-3.737 3.527-5.5 11.001-5.5h6.557L74 63.5l6.442-6.5-22.471.006-22.471.007zM.476 175.5c0 43.45.123 61.079.274 39.176.15-21.904.15-57.454 0-79C.599 114.129.476 132.05.476 175.5m10.524 0V246h235V105H11zm23.223-47.943L32 129.113v46.289c0 43.573.107 46.385 1.829 47.943C35.49 224.848 41.475 225 99.174 225c60.263 0 63.601-.094 65.171-1.829 2.199-2.43 2.088-4.738-.345-7.171-1.955-1.955-3.333-2-61.5-2H43v-78h11.8c12.475 0 14.2-.562 14.2-4.629 0-4.765-2.014-5.371-17.849-5.371-11.692 0-15.162.319-16.928 1.557m46.432.272C77.348 131.482 79.198 136 84 136c4.88 0 6.802-5.059 3.171-8.345-2.377-2.151-4.462-2.095-6.516.174m20.095-.437c-2.01 1.526-2.316 5.642-.55 7.408.905.905 15.044 1.2 57.5 1.2H214v78h-7.345c-8.179 0-10.655 1.462-10.655 6.294 0 3.887 2.572 4.706 14.779 4.706 9.3 0 11.155-.27 12.566-1.829 1.49-1.646 1.655-6.436 1.655-47.943v-46.115l-2.223-1.556c-1.951-1.367-9.409-1.553-61.25-1.525-47.497.025-59.369.291-60.777 1.36M55.2 154.2c-1.801 1.801-1.435 4.451 1.905 13.8a1923 1923 0 0 1 6.56 18.765c3.852 11.227 5.775 13.408 9.882 11.21 1.809-.968 3.697-5.266 8.875-20.199 6.921-19.958 7.306-21.648 5.378-23.576-1.572-1.572-6.291-1.541-7.525.05-.533.688-2.681 6.11-4.772 12.05s-4.128 10.44-4.524 10c-.397-.44-1.541-3.5-2.542-6.8s-2.853-8.363-4.116-11.25c-1.987-4.545-2.674-5.25-5.108-5.25-1.547 0-3.353.54-4.013 1.2m47.722 1.074c-7.085 4.774-9.951 13.31-8.53 25.405.779 6.629 2.521 10.229 6.617 13.675 6.79 5.713 15.192 5.713 21.982 0 4.096-3.446 5.838-7.046 6.617-13.675C131.605 163.685 124.808 153 112 153c-4.277 0-6.548.569-9.078 2.274m33.472-.858c-.299.778-.397 2.691-.219 4.25.306 2.665.637 2.852 5.575 3.136l5.25.303v33.849l2.5 1.638c2.308 1.512 2.69 1.513 4.976.016 2.451-1.606 2.478-1.789 2.75-18.365l.274-16.743 4.744-.305c5.605-.359 7.711-2.803 5.88-6.821-1.068-2.345-1.262-2.374-16.134-2.374-12.059 0-15.161.282-15.596 1.416m42.723.215c-4.052 2.838-5.117 7.228-5.115 21.087.001 10.166.359 13.498 1.75 16.282 2.4 4.805 7.184 6.997 15.275 6.998C198.472 199 202 197.232 202 193.5c0-3.686-3.537-5.5-10.723-5.5H185v-8h4.8c5.296 0 7.2-1.237 7.2-4.677 0-3.175-4.113-5.645-8.541-5.128l-3.555.415.298-4.055.298-4.055 6.958-.3c7.572-.327 9.542-1.282 9.542-4.622 0-3.829-1.878-4.578-11.477-4.578-6.774 0-9.669.414-11.406 1.631m-70.097 8.661c-3.939 1.981-5.133 5.37-4.784 13.567.268 6.293.652 7.632 2.65 9.25a8.125 8.125 0 0 0 10.253-.021c2.149-1.739 2.361-2.682 2.361-10.472 0-7.253-.306-8.854-2-10.484-2.801-2.693-5.585-3.297-8.48-1.84m68.787 52.458c-2.647 3.083-2.874 5.183-.784 7.273 2.47 2.47 5.172 2.524 7.322.148 2.199-2.43 2.088-4.738-.345-7.171-2.462-2.462-4.232-2.533-6.193-.25"/><path fill="#1976D2" fill-opacity=".984" fill-rule="evenodd" d="M141 1c0 .55-.99 1-2.2 1-1.533 0-9.045 6.821-24.763 22.485L91.474 46.97l-30.918.265-30.917.265-2.939 5C22.531 59.59 10.444 81.131 5.656 90c-2.227 4.125-4.41 7.65-4.852 7.833C.362 98.017 0 132.839 0 175.216v77.049l2.153 1.868C4.23 255.934 8.686 256 128.614 256h124.308l2.039-2.189c2.016-2.163 2.039-3.077 2.039-79.666 0-42.613-.307-77.171-.683-76.795-.376.375-2.303-2.362-4.284-6.084-3.993-7.503-17.157-30.985-21.731-38.766l-2.939-5-15.869-.276-15.869-.277L174.07 25.38C153.717 5.015 147.54 0 142.812 0 141.815 0 141 .45 141 1m-29.389 39.75L81.925 70.5l45.754.26 45.753.26 7.284-7.235C184.85 59.68 188 55.698 188 54.579c0-1.228-7.808-9.81-20.719-22.775C150.791 15.246 146.026 11 143.93 11c-2.12 0-8.42 5.8-32.319 29.75m27.547-11.441c-.597.721-1.215 6.233-1.372 12.25L137.5 52.5l-6.788.5c-6.834.503-8.663 1.575-8.697 5.095C121.98 61.777 125.25 63 135.129 63c6.033 0 9.907-.436 10.671-1.2.827-.827 1.2-5.889 1.2-16.3s-.373-15.473-1.2-16.3c-1.59-1.59-5.282-1.529-6.642.109M31.03 63.75C20.626 82.487 18.24 86.706 16.188 90c-1.199 1.925-2.182 3.838-2.184 4.25S65.525 95 128.5 95s114.5-.31 114.5-.69-1.735-3.642-3.856-7.25-6.931-12.073-10.689-18.81L221.623 56h-23.596l-1.562 3.75c-.86 2.063-3.207 5.438-5.217 7.5L187.594 71h10.121c5.567 0 10.833.273 11.703.607 2.141.821 2.141 6.965 0 7.786-.87.334-36.33.607-78.8.607-58.725 0-77.505-.287-78.418-1.2-1.543-1.543-1.543-5.057 0-6.6.707-.707 4.106-1.2 8.277-1.2h7.077l6.723-6.775c3.698-3.726 6.723-7.101 6.723-7.5S70.725 56 58.167 56H35.333zM.476 175.5c0 42.9.123 60.304.274 38.676.15-21.629.15-56.729 0-78C.599 114.904.476 132.6.476 175.5m9.985-70.254c-.263.69-.362 32.754-.22 71.254l.259 70h236v-142l-117.78-.254c-93.696-.202-117.878.002-118.259 1M34.2 128.2c-1.728 1.728-1.728 92.872 0 94.6 1.734 1.734 127.866 1.734 129.6 0 1.603-1.603 1.524-5.286-.143-6.67-.946-.785-19.028-1.19-61.25-1.372L42.5 214.5l-.262-39.25-.261-39.25h11.856c10.217 0 12.086-.253 13.512-1.829 2.066-2.283 2.086-3.597.084-5.6-1.291-1.291-4.29-1.571-16.8-1.571-10.512 0-15.601.372-16.429 1.2m46.371.371c-.864.865-1.571 2.183-1.571 2.929 0 2.152 2.919 4.5 5.596 4.5 3.028 0 4.97-4.073 3.369-7.065-1.253-2.341-5.221-2.536-7.394-.364m20.043-.042c-1.502 1.501-1.264 3.73.664 6.221.753.974 13.427 1.25 57.356 1.25h56.389l-.261 39.25-.262 39.25-8 .5c-9.031.564-10.5 1.174-10.5 4.359 0 4.069 1.726 4.641 14 4.641 7.689 0 12.005-.405 12.8-1.2 1.728-1.728 1.728-92.872 0-94.6-.907-.907-15.806-1.2-60.929-1.2-52.261 0-59.919.191-61.257 1.529m-45.609 25.965c-1.582 1.906-1.414 2.566 5.976 23.506 3.396 9.625 6.901 18.063 7.788 18.75 4.157 3.222 6.655.353 10.887-12.501 1.765-5.362 4.556-13.513 6.202-18.114 3.589-10.035 3.183-12.635-1.973-12.635-3.335 0-3.426.118-6.14 8-4.826 14.016-5.958 16.689-6.706 15.835-.402-.459-2.213-5.11-4.025-10.335s-3.917-10.512-4.677-11.75c-1.591-2.589-5.479-2.989-7.332-.756m49.175.132c-1.827.93-4.527 3.273-6 5.205-2.565 3.362-2.68 4.033-2.68 15.591 0 11.692.09 12.195 2.802 15.74 6.783 8.867 20.613 8.867 27.396 0 2.597-3.394 2.827-4.441 3.138-14.329.388-12.31-.863-16.226-6.574-20.583-4.438-3.385-13.102-4.163-18.082-1.624m33.02-.426c-.66.66-1.2 2.145-1.2 3.3 0 3.186 1.956 4.5 6.7 4.5h4.3v16.429c0 17.374.556 19.571 4.949 19.571 3.474 0 3.994-2.323 4.275-19.072l.276-16.428 4.48-.319c5.2-.37 7.02-1.563 7.02-4.603 0-4.1-1.672-4.578-16-4.578-9.244 0-13.984.384-14.8 1.2m42.586.353c-4.062 2.205-4.997 6.899-4.618 23.177.327 14.023.372 14.271 3.104 17 2.538 2.536 3.515 2.799 11.585 3.113 7.203.281 9.118.04 10.478-1.321 1.881-1.881 2.063-3.342.688-5.522-.657-1.042-3.321-1.653-8.734-2l-7.789-.5-.307-4.25-.308-4.25 4.808-.015c5.298-.017 6.623-.592 7.626-3.307 1.388-3.756-.952-5.678-6.912-5.678h-5.522l.308-4.25.307-4.25 7.455-.298c4.101-.164 8.038-.781 8.75-1.372 1.626-1.35 1.679-5.046.095-6.63-1.768-1.768-17.596-1.502-21.014.353m-71.286 8.655c-3.693 2.118-4.436 4.131-4.468 12.108-.037 8.985.717 10.923 4.93 12.668 3.882 1.608 8.784-.186 10.122-3.705 1.331-3.5 1.072-16.493-.366-18.366-1.453-1.892-5.066-3.925-6.902-3.883-.724.017-2.216.547-3.316 1.178m69.125 53.31c-1.897 1.896-2.004 2.906-.59 5.548 1.4 2.615 5.479 2.466 7.395-.27 1.313-1.874 1.342-2.509.192-4.25-1.737-2.63-4.926-3.099-6.997-1.028"/></svg>