<svg xmlns="http://www.w3.org/2000/svg" width="256" height="256"><path fill="#1976D2" fill-opacity=".016" fill-rule="evenodd" d="M0 128.004v128.004l128.25-.254 128.25-.254.254-127.75L257.008 0H0zm.485.496c0 70.4.119 99.053.265 63.672s.146-92.98 0-128S.485 58.1.485 128.5"/><path fill="#1976D2" fill-opacity=".103" fill-rule="evenodd" d="M72 .893c0 .491.787 1.228 1.75 1.638 1.5.638 1.393.838-.75 1.401l-2.5.658-.528 47.955-.527 47.955.027-49.123c.022-38.701-.235-49.022-1.213-48.647-.959.369-1.299 11.722-1.5 50.123L66.5 102.5l-2.25.987c-1.237.543-2.25 1.331-2.25 1.75 0 1.145 1.444.919 2.8-.437.66-.66 1.2-.815 1.2-.345s.9.04 2-.955c1.543-1.397 2-1.486 2-.391 0 .781-1.803 2.2-4.007 3.155-4.885 2.117-4.993 2.121-4.993.177 0-.857-.468-1.27-1.041-.916-.572.354-.794 1.42-.492 2.37.392 1.235-.381 2.182-2.71 3.321-4.274 2.091-15.015 11.353-18.304 15.784-8.603 11.591-11.634 29.516-7.824 46.269 3.644 16.019 14.546 28.105 33.476 37.112L71.71 214h20.645c16.97 0 20.645-.248 20.645-1.392 0-.765-1.222-1.698-2.715-2.073-8.523-2.139-19.298-9.564-25.191-17.36-3.763-4.976-8.507-14.297-9.505-18.675-.376-1.65-.934-3.9-1.24-5l-.556-2 1.572 2c1.556 1.98 1.572 1.978 1.603-.25.019-1.335-.57-2.25-1.449-2.25-.814 0-1.777-1.181-2.14-2.625-1.022-4.072.317-18.426 2.133-22.875 3.377-8.27 3.997-9.5 4.791-9.5.448 0 .589-.366.313-.812-.499-.808.673-2.359 7.408-9.796 4.069-4.493 14.346-11.158 21.206-13.753l4.729-1.789.271-20.045.27-20.045 7.149 6.62c3.932 3.641 7.658 6.62 8.281 6.62s3.734-2.7 6.913-6 5.978-6 6.219-6c.241-.001.438 10.641.438 23.648v23.65l4 1.371c11.374 3.899 16.658 7.667 25.262 18.013 6.792 8.166 12.117 22.054 12.201 31.818.04 4.629-2.175 16.407-4.043 21.5-2.418 6.592-7.729 14.51-13.574 20.235-5.632 5.516-16.914 12.281-21.591 12.945-2.187.31-2.263.701-2.534 12.969-.263 11.904-.392 12.619-2.196 12.147-1.712-.447-1.904.038-1.801 4.56.078 3.431.585 5.241 1.574 5.62 1.15.441 1.333-.072.863-2.419-.327-1.639-.16-3.248.372-3.577.542-.336.967.745.967 2.461 0 1.761.531 3.075 1.25 3.096 12.454.37 40.792.055 41.63-.463.751-.464 1.12-5.929 1.12-16.586v-15.894l4.371-1.934c12.622-5.583 27.862-19.162 32.111-28.612 4.222-9.389 4.913-12.823 4.944-24.548.03-11.573-1.595-19.416-5.07-24.473-1.802-2.621-1.728-4.607.144-3.889.825.317 1.5.126 1.5-.424 0-1.511-2.804-2.275-3.332-.908-.283.734-1.164.23-2.284-1.306-5.395-7.399-14.903-14.834-25.626-20.038l-6.741-3.272-.259-54.595L186.5 3.5l-21.373-.27-21.373-.27-6.78 7.139c-4.672 4.918-7.199 6.893-8.127 6.348-.741-.435-4.332-3.414-7.981-6.619s-7.248-5.835-8-5.843c-1.099-.013-1.083-.195.079-.93 1.044-.66 2.781.204 6.25 3.108C121.838 8.376 124 9.963 124 9.69c0-1.192-6.493-7.69-7.684-7.69-.724 0-1.316-.45-1.316-1 0-.556-2.667-1-6-1s-6 .444-6 1c0 .55 1.35 1 3 1s3 .45 3 1c0 .618-5.189 1-13.567 1C82.32 4 81.887 3.933 82.5 2c.583-1.837.18-2-4.933-2C74.505 0 72 .402 72 .893M84 1c0 .588 3.5 1 8.5 1s8.5-.412 8.5-1-3.5-1-8.5-1S84 .412 84 1m58-.019c0 .605 8.723 1.085 22.75 1.25l22.75.269.259 54.75c.166 35.345.609 54.75 1.25 54.75.643 0 .991-19.146.991-54.5 0-34.489-.356-54.5-.969-54.5-.532 0-.709-.675-.393-1.5C189.14.193 186.18 0 165.607 0 150.837 0 142 .367 142 .981m-7.457 5.95c-.683 1.105.894 2.299 1.818 1.375.95-.951.773-2.306-.302-2.306-.518 0-1.2.419-1.516.931M76 11.906c0 .499.9.671 2 .384s2-.696 2-.907c0-.21-.9-.383-2-.383s-2 .408-2 .906m29-.523c0 .211.9.619 2 .907 1.1.287 2 .115 2-.384 0-.498-.9-.906-2-.906s-2 .173-2 .383m22 .495c0 1.267 2.573 3.215 3.294 2.494.336-.335-.011-1.232-.77-1.991-1.584-1.584-2.524-1.771-2.524-.503m21-.128c0 .412 1.125.75 2.5.75s2.5-.338 2.5-.75-1.125-.75-2.5-.75-2.5.338-2.5.75m30.75-.088c.688.278 1.813.278 2.5 0 .688-.277.125-.504-1.25-.504s-1.937.227-1.25.504M76 21c0 .55.9 1 2 1s2-.45 2-1-.9-1-2-1-2 .45-2 1m30 0c0 .55.675 1 1.5 1s1.5-.45 1.5-1-.675-1-1.5-1-1.5.45-1.5 1m14 0c0 1.264 2.043 1.264 4 0 1.169-.755.893-.973-1.25-.985-1.513-.008-2.75.435-2.75.985m15 0c0 .55.45 1 1 1s1-.45 1-1-.45-1-1-1-1 .45-1 1m13 0c0 .55 1.125 1 2.5 1s2.5-.45 2.5-1-1.125-1-2.5-1-2.5.45-2.5 1m30-.213c0 .433.9.855 2 .938s2-.271 2-.787-.9-.938-2-.938-2 .354-2 .787M76 30.505c0 .725.662 1.221 1.471 1.102 2.445-.359 2.734-1.32.569-1.886-1.291-.338-2.04-.05-2.04.784m31.166-.629c-1.074.681-1.025.964.25 1.453 1.002.385 1.584.069 1.584-.86 0-1.7-.058-1.719-1.834-.593m40.834.507c0 .211 1.125.599 2.5.862s2.5.09 2.5-.384c0-.473-1.125-.861-2.5-.861s-2.5.173-2.5.383m30 .01c0 .216.675.652 1.5.969s1.5.139 1.5-.393c0-.533-.675-.969-1.5-.969s-1.5.177-1.5.393M151.5 41c-.34.55-.141 1 .441 1S153 41.55 153 41s-.198-1-.441-1-.719.45-1.059 1m-74.687 9.683c.721.289 1.584.253 1.916-.079s-.258-.568-1.312-.525c-1.165.048-1.402.285-.604.604m30 0c.721.289 1.584.253 1.916-.079s-.258-.568-1.312-.525c-1.165.048-1.402.285-.604.604m42.456.01c.973.254 2.323.237 3-.037s-.119-.481-1.769-.461-2.204.244-1.231.498M148 60c0 .55.477 1 1.059 1s.781-.45.441-1-.816-1-1.059-1-.441.45-.441 1m-12.608 2.466c.314 2.142 1.608 3.155 1.608 1.26 0-.885-.41-1.862-.912-2.172s-.815.101-.696.912m-58.579 7.217c.721.289 1.584.253 1.916-.079s-.258-.568-1.312-.525c-1.165.048-1.402.285-.604.604M107.5 70c.34.55.816 1 1.059 1s.441-.45.441-1-.477-1-1.059-1-.781.45-.441 1m40.5-.139c0 .474 1.125.647 2.5.384s2.5-.651 2.5-.862-1.125-.383-2.5-.383-2.5.388-2.5.861M129.5 71c-.34.55-.141 1 .441 1S131 71.55 131 71s-.198-1-.441-1-.719.45-1.059 1m-12.5.466c0 1.069 6.182 6.686 6.742 6.125.679-.679-4.64-6.591-5.929-6.591-.447 0-.813.209-.813.466m22.469 1.584c-.95 1.538.351 2.53 1.635 1.246.718-.718.735-1.277.052-1.699-.56-.346-1.319-.142-1.687.453m-10.719 8.612c.688.278 1.813.278 2.5 0 .688-.277.125-.504-1.25-.504s-1.937.227-1.25.504M76 89.667C76 90.4 76.675 91 77.5 91s1.5-.6 1.5-1.333c0-.734-.675-1.334-1.5-1.334s-1.5.6-1.5 1.334m31.25-1.005c-1.741.703-1.566 2.338.25 2.338.825 0 1.5-.675 1.5-1.5s-.112-1.464-.25-1.421-.812.306-1.5.583M148 89.75c0 .688 1.125 1.25 2.5 1.25s2.5-.562 2.5-1.25-1.125-1.25-2.5-1.25-2.5.563-2.5 1.25m-72 9.281c0 .533.675.969 1.5.969s1.5-.177 1.5-.393-.675-.652-1.5-.969-1.5-.139-1.5.393M107 99c-1.282.828-1.246.972.25.985.963.008 1.75-.435 1.75-.985 0-1.22-.113-1.22-2 0m41 0c0 .55 1.125 1 2.5 1s2.5-.45 2.5-1-1.125-1-2.5-1-2.5.45-2.5 1m30 .094c0 .498.9.906 2 .906s2-.173 2-.383-.9-.619-2-.907c-1.1-.287-2-.115-2 .384M116 104c0 1.1.45 2 1 2s1-.9 1-2-.45-2-1-2-1 .9-1 2m-3.417 3.75c-.412.412-1.237.75-1.833.75s-1.271.563-1.5 1.25.296 1.25 1.167 1.25c.87 0 1.583-.45 1.583-1s.675-1 1.5-1 1.5-.45 1.5-1c0-1.178-1.349-1.317-2.417-.25M148 109c0 .55 1.125 1 2.5 1s2.5-.45 2.5-1-1.125-1-2.5-1-2.5.45-2.5 1m30-.213c0 .433.9.855 2 .938s2-.271 2-.787-.9-.938-2-.938-2 .354-2 .787m-127.393 2.795c-.939 2.446-.735 2.769.893 1.418 1.662-1.38 1.99-3 .607-3-.491 0-1.166.712-1.5 1.582m49.143 2.176C96.976 115.478 96.155 117 98 117c.55 0 1-.436 1-.969s.563-.752 1.252-.488 1.818-.425 2.509-1.531c1.524-2.442.639-2.517-3.011-.254M191.5 113c.34.55.816 1 1.059 1s.441-.45.441-1-.477-1-1.059-1-.781.45-.441 1m-150.184 6.429c-3.402 3.503-5.951 6.603-5.666 6.888.518.518 13.35-11.769 13.35-12.783 0-1.479-2.058.099-7.684 5.895m152.834-5.479c.22.66.614 1.056.875.879s1.825.616 3.475 1.761c5.421 3.762 5.832 3.898 4.55 1.503-.633-1.182-1.578-1.885-2.1-1.562-.523.323-.95.163-.95-.355 0-.519-.787-1.221-1.75-1.56a47 47 0 0 1-3.125-1.242c-.818-.371-1.213-.138-.975.576M141 116c0 .55.477 1 1.059 1s.781-.45.441-1-.816-1-1.059-1-.441.45-.441 1m4.498 1.004c-.339.548-.364 1.052-.057 1.121 1.278.286 2.153.589 3.852 1.335 3.141 1.379 3.017-.248-.143-1.883-1.906-.985-3.266-1.199-3.652-.573m-55.306 4.473c-2.581 2.462-4.223 4.487-3.65 4.5s3.029-2.002 5.458-4.477c5.725-5.834 4.3-5.852-1.808-.023m115.339-1.527c-.323.522.36 1.456 1.517 2.076 1.93 1.033 2.012.955.993-.95-1.242-2.32-1.657-2.506-2.51-1.126M153.5 121c.34.55.816 1 1.059 1s.441-.45.441-1-.477-1-1.059-1-.781.45-.441 1m4.106 2.416c.335.871 1.047 1.584 1.584 1.584 1.315 0 .492-2.273-1.003-2.771-.731-.244-.954.214-.581 1.187m52.394.142c0 .906 9.456 9.319 9.936 8.839.549-.548-8.062-9.397-9.144-9.397-.436 0-.792.251-.792.558m-89.306 1.081c-1.221 1.221.272 2.09 2.77 1.613 1.382-.265 2.266-.879 1.965-1.366-.632-1.024-3.793-1.188-4.735-.247M131.5 125c-.34.55.309 1 1.441 1s2.385.034 2.784.075.886-.409 1.083-1c.453-1.357-4.473-1.426-5.308-.075m30.5.423c0 .669 6.085 6.577 6.773 6.577.341 0-.907-1.575-2.773-3.5-3.307-3.412-4-3.945-4-3.077m-46 1.636c0 .582.45.781 1 .441s1-.816 1-1.059-.45-.441-1-.441-1 .477-1 1.059m24-.059c0 .55.675 1 1.5 1s1.5-.45 1.5-1-.675-1-1.5-1-1.5.45-1.5 1m-29 1.469c0 .892.587 1.243 1.494.895.822-.316 1.246-.976.941-1.469-.872-1.412-2.435-1.044-2.435.574m33.543-.538c-.317.512-.118 1.213.441 1.559s1.016-.074 1.016-.931c0-1.757-.6-2.015-1.457-.628m-24.543.821c0 .564-1.671 1.339-3.714 1.722-4.933.926-13.889 7.921-17.546 13.706-.932 1.474-2.661 5.473-3.843 8.888-1.782 5.149-2.035 7.458-1.483 13.541.941 10.388 3.974 16.657 11.1 22.942 5.743 5.066 9.144 6.743 18.024 8.886 8.26 1.994 12.954 1.243 23.249-3.718 6.208-2.992 12.25-8.949 14.929-14.719 1.74-3.748 4.284-13.461 4.284-16.355 0-6.772-5.485-20.682-9.028-22.894-1.084-.678-1.972-1.694-1.972-2.258 0-1.257-9.354-7.493-11.24-7.493-.748 0-1.871-.511-2.496-1.136-1.485-1.485-20.264-2.515-20.264-1.112M32 130c0 .55.423 1 .941 1s1.219-.45 1.559-1-.084-1-.941-1-1.559.45-1.559 1m75.658.449q-.56 1.452.893.893c1.582-.607 1.994-2.342.556-2.342-.491 0-1.143.652-1.449 1.449M147.5 130c.34.55.816 1 1.059 1s.441-.45.441-1-.477-1-1.059-1-.781.45-.441 1m3.134.699c-.329.329 1.888 3.063 4.925 6.076s5.761 5.239 6.053 4.946c.292-.292-1.924-3.026-4.925-6.075s-5.725-5.275-6.053-4.947M31 133c0 .55.45 1 1 1s1-.45 1-1-.45-1-1-1-1 .45-1 1m69.25 2.471c-1.787 1.785-3.25 3.851-3.25 4.591 0 .739 1.8-.414 4-2.562 3.768-3.68 4.952-5.642 3.25-5.388-.412.062-2.213 1.573-4 3.359M80 135c0 .55.45 1 1 1s1-.45 1-1-.45-1-1-1-1 .45-1 1m-51 1.5c0 .917.484 1.505 1.075 1.308s1.075-.786 1.075-1.308-.484-1.111-1.075-1.308S29 135.583 29 136.5m185 .5c0 .55.477 1 1.059 1s.781-.45.441-1-.816-1-1.059-1-.441.45-.441 1m-135.5 1c-.34.55-.141 1 .441 1S80 138.55 80 138s-.198-1-.441-1-.719.45-1.059 1m93.5 0c0 .55.702 1 1.559 1s1.281-.45.941-1-1.041-1-1.559-1-.941.45-.941 1m9.813-.317c.721.289 1.584.253 1.916-.079s-.258-.568-1.312-.525c-1.165.048-1.402.285-.604.604M28 142.059c0 1.132.45 1.781 1 1.441s1-1.266 1-2.059S29.55 140 29 140s-1 .927-1 2.059M224.5 141c.34.55.816 1 1.059 1s.441-.45.441-1-.477-1-1.059-1-.781.45-.441 1m-147.903.844c-.346.56-.142 1.319.453 1.687 1.538.95 2.53-.351 1.246-1.635-.718-.718-1.277-.735-1.699-.052m18.531 1.056c-.754.478-1.167 1.482-.917 2.232.316.949.819.681 1.657-.885 1.329-2.484 1.259-2.613-.74-1.347M226 144c0 .55.45 1 1 1s1-.45 1-1-.45-1-1-1-1 .45-1 1m-151 4.5c0 1.925.45 3.5 1 3.5s1-1.575 1-3.5-.45-3.5-1-3.5-1 1.575-1 3.5m102-2.5c0 .55.477 1 1.059 1s.781-.45.441-1-.816-1-1.059-1-.441.45-.441 1m50.393 1.582c.334.87.639 2.107.677 2.75s.433.268.875-.832c.892-2.216.484-3.5-1.111-3.5-.576 0-.775.712-.441 1.582M26 153.559c0 2.785.389 4.319 1 3.941.55-.34 1-2.391 1-4.559S27.55 149 27 149s-1 2.052-1 4.559m138.553-3.644a1.116 1.116 0 0 0 .362 1.532c.521.322 1.21.159 1.532-.362a1.116 1.116 0 0 0-.362-1.532 1.116 1.116 0 0 0-1.532.362m14 0a1.116 1.116 0 0 0 .362 1.532c.521.322 1.21.159 1.532-.362a1.116 1.116 0 0 0-.362-1.532 1.116 1.116 0 0 0-1.532.362M91 152.5c0 .825.177 1.5.393 1.5s.652-.675.969-1.5.139-1.5-.393-1.5c-.533 0-.969.675-.969 1.5m138.232 3.5c0 1.925.206 2.713.457 1.75.252-.963.252-2.537 0-3.5-.251-.963-.457-.175-.457 1.75m-63.232.441c0 1.343.45 2.719 1 3.059.583.361 1-.656 1-2.441 0-1.682-.45-3.059-1-3.059s-1 1.098-1 2.441M180 155c0 .55.45 1 1 1s1-.45 1-1-.45-1-1-1-1 .45-1 1m-114 1c0 .55.423 1 .941 1s1.219-.45 1.559-1-.084-1-.941-1-1.559.45-1.559 1m23 8c0 4 .429 7 1 7s1-3 1-7-.429-7-1-7-1 3-1 7m-14.921-4.417c.048 1.165.285 1.402.604.605.289-.722.253-1.585-.079-1.917s-.568.258-.525 1.312M26 164.441c0 2.507.45 4.559 1 4.559s1-1.773 1-3.941-.45-4.219-1-4.559c-.611-.378-1 1.156-1 3.941M189 162c0 .55.45 1 1 1s1-.45 1-1-.45-1-1-1-1 .45-1 1m34.5 0c-.34.55-.141 1 .441 1s1.059-.45 1.059-1-.198-1-.441-1-.719.45-1.059 1m-41.268 5c0 1.925.206 2.713.457 1.75.252-.963.252-2.537 0-3.5-.251-.963-.457-.175-.457 1.75m-15.565.667c-1.038 1.037-.784 4.333.333 4.333.55 0 1-1.125 1-2.5 0-2.618-.231-2.936-1.333-1.833M77 174c0 .55.45 1 1 1s1-.45 1-1-.45-1-1-1-1 .45-1 1m13.693.359c-.333.867-.145 1.861.417 2.209 1.557.962 2.189-.212 1.131-2.102-.842-1.505-1.008-1.516-1.548-.107M28 175.441c0 .857.45 1.559 1 1.559s1-.423 1-.941-.45-1.219-1-1.559-1 .084-1 .941m136.636 1.065c-.348.907.003 1.494.895 1.494 1.618 0 1.986-1.563.574-2.435-.493-.305-1.153.119-1.469.941m64.616 2.994c.011 2.2.216 2.982.455 1.738s.23-3.044-.02-4-.446.062-.435 2.262M180 179c0 .55.45 1 1 1s1-.45 1-1-.45-1-1-1-1 .45-1 1m-16.5 1c-.34.55-.141 1 .441 1s1.059-.45 1.059-1-.198-1-.441-1-.719.45-1.059 1M80 182c0 .55.45 1 1 1s1-.45 1-1-.45-1-1-1-1 .45-1 1m14 0c0 .55.477 1 1.059 1s.781-.45.441-1-.816-1-1.059-1-.441.45-.441 1m-22.187.683c.721.289 1.584.253 1.916-.079s-.258-.568-1.312-.525c-1.165.048-1.402.285-.604.604m89.656.367c-.95 1.538.351 2.53 1.635 1.246.718-.718.735-1.277.052-1.699-.56-.346-1.319-.142-1.687.453M31 185c0 .55.45 1 1 1s1-.45 1-1-.45-1-1-1-1 .45-1 1m64-.19c0 .537.713 1.249 1.584 1.584.973.373 1.431.15 1.187-.581-.498-1.495-2.771-2.318-2.771-1.003m-10.914 4.164c1.613 2.459 3.94 3.873 3.883 2.359-.018-.458-1.255-1.72-2.75-2.804l-2.719-1.972zm71.661 1.619c-3.468 3.178-4.789 5.525-2.997 5.322 1.016-.114 7.632-7.866 7.137-8.362-.217-.216-2.08 1.152-4.14 3.04M177 188c0 .55.45 1 1 1s1-.45 1-1-.45-1-1-1-1 .45-1 1m49 2c0 .55.45 1 1 1s1-.45 1-1-.45-1-1-1-1 .45-1 1m-150.187.683c.721.289 1.584.253 1.916-.079s-.258-.568-1.312-.525c-1.165.048-1.402.285-.604.604M175.5 191c-.34.55-.141 1 .441 1s1.059-.45 1.059-1-.198-1-.441-1-.719.45-1.059 1m49 2c-.34.55-.141 1 .441 1s1.059-.45 1.059-1-.198-1-.441-1-.719.45-1.059 1m-50.5 1.559c0 .857.457 1.276 1.016.931.559-.346.758-1.047.441-1.559-.857-1.387-1.457-1.129-1.457.628m-68.371.918c.322.838 1.212 1.523 1.978 1.523 1.953 0 1.734-.747-.584-1.988-1.614-.863-1.87-.778-1.394.465M39 195.813c0 1.265 5.906 6.614 6.57 5.95.326-.325-.862-1.98-2.638-3.677-3.426-3.275-3.932-3.567-3.932-2.273m110.5.187c-.34.55-.141 1 .441 1s1.059-.45 1.059-1-.198-1-.441-1-.719.45-1.059 1m73 0c-.34.55.084 1 .941 1s1.559-.45 1.559-1-.423-1-.941-1-1.219.45-1.559 1m-51.277 2.557c-1.223.856-2.223 1.981-2.223 2.5 0 1.759 1.763.954 3.408-1.557 1.917-2.926 1.79-3.027-1.185-.943M92.5 199c.34.55.816 1 1.059 1s.441-.45.441-1-.477-1-1.059-1-.781.45-.441 1m20.5 0c0 .55.477 1 1.059 1s.781-.45.441-1-.816-1-1.059-1-.441.45-.441 1m30.5 0c-.34.55.084 1 .941 1s1.559-.45 1.559-1-.423-1-.941-1-1.219.45-1.559 1m-27.5 1.594c0 .773.9 1.406 2 1.406s2-.398 2-.883c0-.486-.9-1.119-2-1.407-1.3-.34-2-.03-2 .884m22 .406c0 .55.648 1 1.441 1s1.719-.45 2.059-1-.309-1-1.441-1-2.059.45-2.059 1m-40.771 1.188c.218.653.931 1.365 1.584 1.583.731.244.954-.214.581-1.187-.698-1.818-2.765-2.196-2.165-.396m25.068.204c.421 1.262 12.015 1.172 12.438-.096.169-.507-2.637-.921-6.235-.921-3.991 0-6.409.397-6.203 1.017m91.399 4.304c-3.167 3.067-5.502 5.831-5.19 6.143s3.116-1.983 6.233-5.1 5.452-5.881 5.19-6.143-3.067 2.033-6.233 5.1M50 205.559c0 .857.457 1.276 1.016.931.559-.346.758-1.047.441-1.559-.857-1.387-1.457-1.129-1.457.628m52-.559c0 .55.477 1 1.059 1s.781-.45.441-1-.816-1-1.059-1-.441.45-.441 1m-49 1.765c0 1.063 2.148 3.235 3.2 3.235 1.552 0 .775-1.943-1.2-3-1.1-.589-2-.695-2-.235m52 .235c0 .55.873 1 1.941 1s2.224.457 2.569 1.016c.346.559 1.054.753 1.575.431a1.116 1.116 0 0 0 .362-1.532 1.106 1.106 0 0 0-1.516-.372c-.512.316-.931.098-.931-.484s-.9-1.059-2-1.059-2 .45-2 1m-47 3c0 .55.477 1 1.059 1s.781-.45.441-1-.816-1-1.059-1-.441.45-.441 1m56.818.66c.657 1.228.674 2.496.048 3.616-1.227 2.191.415 2.295 2.204.14 1.421-1.712.385-4.431-1.989-5.222-.958-.32-1.024.044-.263 1.466m44.086-.045c-1.16 1.398-1.086 1.566.545 1.25 1.037-.201 2.073-.927 2.301-1.615.594-1.784-1.26-1.546-2.846.365M61 212c0 .55.45 1 1 1s1-.45 1-1-.45-1-1-1-1 .45-1 1m3 1.5c0 .917.484 1.505 1.075 1.308s1.075-.786 1.075-1.308-.484-1.111-1.075-1.308S64 212.583 64 213.5m90.607.082c-.939 2.446-.735 2.769.893 1.418 1.662-1.38 1.99-3 .607-3-.491 0-1.166.712-1.5 1.582m50.06.085c-.956.955-.822 2.333.226 2.333.491 0 1.152-.675 1.469-1.5.585-1.524-.481-2.048-1.695-.833M69 215c0 .55.477 1 1.059 1s.781-.45.441-1-.816-1-1.059-1-.441.45-.441 1m80 1.469c0 .892.587 1.243 1.494.895.822-.316 1.246-.976.941-1.469-.872-1.412-2.435-1.044-2.435.574m51 1.031c-.718.865-.815 1.5-.229 1.5.558 0 1.274-.675 1.591-1.5s.419-1.5.229-1.5-.906.675-1.591 1.5m-58 .5c0 .55.873 1 1.941 1s2.219-.45 2.559-1c.351-.567-.49-1-1.941-1-1.407 0-2.559.45-2.559 1m54 2c0 .55.45 1 1 1s1-.45 1-1-.45-1-1-1-1 .45-1 1m-57 5c0 3.778.367 5 1.5 5s1.5-1.222 1.5-5-.367-5-1.5-5-1.5 1.222-1.5 5m54.5-4c-.34.55-.141 1 .441 1s1.059-.45 1.059-1-.198-1-.441-1-.719.45-1.059 1m-4.25 1.662c-1.329.536-1.768 4.343-.5 4.33.412-.004 1.27-1.129 1.906-2.5 1.156-2.492.938-2.776-1.406-1.83M148 228c0 .55 1.125 1 2.5 1s2.5-.45 2.5-1-1.125-1-2.5-1-2.5.45-2.5 1m31 0c-1.282.828-1.246.972.25.985.963.008 1.75-.435 1.75-.985 0-1.22-.113-1.22-2 0m9 10.5c0 6.333.397 10.5 1 10.5s1-4.167 1-10.5-.397-10.5-1-10.5-1 4.167-1 10.5m-48.6-5.1c-.366.954-.171 2.229.434 2.834.8.8 1.282.627 1.766-.634.366-.954.171-2.229-.434-2.834-.8-.8-1.282-.627-1.766.634m8.6 4.6c0 1.174.769 1.174 3.5 0 1.772-.762 1.687-.867-.75-.93-1.512-.038-2.75.38-2.75.93m30-.607c0 .949 2.993 1.427 3.527.563.325-.526-.336-.956-1.468-.956s-2.059.177-2.059.393m-39 3.69c0 1.146.523 1.909 1.163 1.696 1.697-.566 1.908-3.779.249-3.779-.777 0-1.412.938-1.412 2.083m9 5.917c0 .55 1.125 1 2.5 1s2.5-.45 2.5-1-1.125-1-2.5-1-2.5.45-2.5 1m31 0c-1.207.78-1.049.972.809.985 1.288.008 2.036-.427 1.691-.985-.743-1.202-.639-1.202-2.5 0m9 5c0 1.1.45 2 1 2s1-.9 1-2-.45-2-1-2-1 .9-1 2"/><path fill="#1976D2" fill-opacity=".285" fill-rule="evenodd" d="M72 1c0 .55 2.475 1 5.5 1S83 1.55 83 1s-2.475-1-5.5-1S72 .45 72 1m13 0c0 .578 3.167 1 7.5 1s7.5-.422 7.5-1-3.167-1-7.5-1S85 .422 85 1m19 0c0 .55 2.25 1 5 1s5-.45 5-1-2.25-1-5-1-5 .45-5 1M72.25 4.675c-.977.384-1.251 11.357-1.254 50.158l-.005 49.667-7.745 3.927c-20.687 10.489-30.931 23.689-32.79 42.251-.375 3.752-.807 7.047-.958 7.322-.152.275.3 4.647 1.003 9.716 1.595 11.491 5.447 19.942 12.278 26.932C47.185 199.157 58.889 208 60.45 208c.308 0 2.892 1.125 5.742 2.5 5.007 2.415 5.873 2.5 25.554 2.5 13.327 0 20.158-.346 19.754-1-.34-.55-1.334-1-2.209-1-3.789 0-13.208-5.943-19.811-12.5-11.084-11.006-17.587-26.626-17.426-41.857.22-20.771 14.862-40.692 36.192-49.241l4.747-1.902.003-20.25c.003-12.167.384-20.25.957-20.25.819 0 7.053 5.301 13.23 11.25.999.963 2.34 1.75 2.98 1.75s3.716-2.7 6.837-6 5.972-6 6.337-6S144 76.8 144 90c0 18.816.276 24 1.278 24 .703 0 4.592 1.588 8.642 3.529 9.271 4.443 20.416 15.211 24.812 23.971 11.858 23.634 7.224 49.343-12.222 67.808-4.783 4.541-12.4 9.028-18.26 10.756-2.337.689-4.263 1.631-4.279 2.094-.015.463-.041 7.705-.057 16.092l-.029 15.25 21.057.27 21.058.27v-31.984l6.25-3.099c13.235-6.56 25.58-17.871 30.985-28.388 6.68-12.997 6.125-36.432-1.164-49.073-6.18-10.719-13.143-16.715-28.547-24.584l-7.024-3.587-.237-53.413c-.131-29.376-.243-53.974-.25-54.662-.01-.96-4.898-1.25-21.069-1.25h-21.056l-6.596 7c-3.628 3.85-6.899 7-7.269 7s-4.219-3.037-8.552-6.75l-7.878-6.75-20.047-.158c-11.025-.087-20.608.063-21.296.333M189.465 58.5c0 28.6.128 40.156.284 25.68.157-14.476.157-37.876 0-52-.156-14.124-.284-2.28-.284 26.32M75.19 11.75c.213 1.104 1.25 1.75 2.81 1.75s2.597-.646 2.81-1.75C81.073 10.383 80.459 10 78 10s-3.073.383-2.81 1.75m29 0c.213 1.104 1.25 1.75 2.81 1.75s2.597-.646 2.81-1.75c.263-1.367-.351-1.75-2.81-1.75s-3.073.383-2.81 1.75M148 12c0 1.443.667 2 2.393 2 2.296 0 4.117-2.157 2.871-3.402-.328-.329-1.647-.598-2.931-.598-1.666 0-2.333.571-2.333 2m29.19-.25c.213 1.104 1.25 1.75 2.81 1.75s2.597-.646 2.81-1.75c.263-1.367-.351-1.75-2.81-1.75s-3.073.383-2.81 1.75m-63.272-.5c-.045.137-.286 1.488-.534 3-.523 3.176.598 3.532 2.947.936 1.266-1.399 1.37-2.085.455-3-1.066-1.066-2.655-1.585-2.868-.936m27.073 1.261c-.982 1.183-.98 1.798.009 2.989 1.827 2.201 3 1.833 3-.941 0-3.055-1.389-4-3.009-2.048M127 12.393c0 .216.698.661 1.552.989.89.341 1.291.173.941-.393-.587-.951-2.493-1.406-2.493-.596m-6.25 6.999c-2.196 1.667-2.236 3.208-.105 4.025 2.367.909 5.699-2.297 4.229-4.069-1.371-1.652-1.897-1.647-4.124.044m13.717-.339c-.921 1.491.504 4.947 2.041 4.947 1.807 0 2.641-1.449 1.918-3.332-.73-1.901-3.167-2.896-3.959-1.615m-58.899.712C73.999 21.335 75.25 23 78 23q3 0 3-1.5c0-.825-.338-1.534-.75-1.577s-1.507-.222-2.432-.401-1.937-.069-2.25.243m30.682.003c-3.439.567-2.821 3.232.75 3.232 1.945 0 3-.507 3-1.441 0-1.821-.915-2.258-3.75-1.791M148 21.216c0 1.501.596 1.848 2.75 1.6 1.637-.188 2.75-.923 2.75-1.816 0-.945-1.017-1.537-2.75-1.601-2.079-.076-2.75.367-2.75 1.817m30.25-1.554C175.733 20.678 176.95 23 180 23c3.233 0 4.205-2.324 1.418-3.393-.87-.334-1.657-.571-1.75-.528s-.73.306-1.418.583m-50 6.052c-1.718.622-1.568 2.777.3 4.328 1.274 1.057 1.815 1.022 3.031-.195 1.308-1.308 1.273-1.662-.3-3.033-.979-.854-2.343-1.349-3.031-1.1M75 31c0 1.556.667 2 3 2s3-.444 3-2-.667-2-3-2-3 .444-3 2m29.5-1c-.994 1.608.425 3 3.059 3 1.774 0 2.441-.546 2.441-2s-.667-2-2.441-2c-1.343 0-2.719.45-3.059 1m43.5 1c0 1.443.667 2 2.393 2 2.296 0 4.117-2.157 2.871-3.402-.328-.329-1.647-.598-2.931-.598-1.666 0-2.333.571-2.333 2m29 0c0 1.556.667 2 3 2s3-.444 3-2-.667-2-3-2-3 .444-3 2m-56.874 2.348c-.854 1.029-.641 1.781.901 3.177 2.643 2.391 4.718.736 3.03-2.418-1.307-2.443-2.364-2.647-3.931-.759M75.185 40.75c.2 1.055 1.42 1.876 3.074 2.066 2.206.255 2.741-.087 2.741-1.75 0-1.64-.634-2.066-3.073-2.066-2.387 0-3 .391-2.742 1.75m29.005 0c.213 1.104 1.25 1.75 2.81 1.75s2.597-.646 2.81-1.75c.263-1.367-.351-1.75-2.81-1.75s-3.073.383-2.81 1.75m9.855-.305c-1.031 1.243-1.04 1.856-.045 3.055.685.825 1.838 1.5 2.563 1.5 2.352 0 2.728-2.153.726-4.155-1.751-1.752-2.087-1.793-3.244-.4M148 41c0 1.429.667 2 2.333 2 1.284 0 2.603-.269 2.931-.598 1.246-1.245-.575-3.402-2.871-3.402-1.726 0-2.393.557-2.393 2m29.19-.25c.213 1.104 1.25 1.75 2.81 1.75s2.597-.646 2.81-1.75c.263-1.367-.351-1.75-2.81-1.75s-3.073.383-2.81 1.75M75.524 48.81C73.995 50.339 75.284 52 78 52c3.689 0 4.102-2.556.524-3.24-1.363-.261-2.713-.238-3 .05m30.726-.042c-3.439.567-2.821 3.232.75 3.232 1.945 0 3-.507 3-1.441 0-1.821-.915-2.258-3.75-1.791M148 50.106c0 1.354.713 1.894 2.5 1.894 3.477 0 3.477-3.444-.001-3.644-1.837-.106-2.499.358-2.499 1.75m29.568-1.341C175.999 50.335 177.25 52 180 52q3 0 3-1.5c0-.825-.338-1.534-.75-1.577s-1.507-.222-2.432-.401-1.937-.069-2.25.243m-36.577 5.746c-.982 1.183-.98 1.798.009 2.989 1.827 2.201 3 1.833 3-.941 0-3.055-1.389-4-3.009-2.048m-65.282 4.113C73.992 60.342 75.153 62 78.073 62c2.388 0 2.999-.391 2.74-1.75-.341-1.79-3.829-2.901-5.104-1.626m29 0c-1.717 1.718-.556 3.376 2.364 3.376 2.388 0 2.999-.391 2.74-1.75-.341-1.79-3.829-2.901-5.104-1.626M148 60c0 1.467.667 2 2.5 2s2.5-.533 2.5-2-.667-2-2.5-2-2.5.533-2.5 2m29.535-1.057c-1.035 1.676.364 3.057 3.097 3.057 1.855 0 2.427-.459 2.181-1.75-.375-1.968-4.272-2.934-5.278-1.307M134.638 61.5c-.778 2.028.272 4.5 1.91 4.5 2.031 0 2.667-1.73 1.463-3.979-1.282-2.396-2.576-2.596-3.373-.521m-6.661 6.522c-1.141.711-1.225 1.326-.37 2.7 1.426 2.289 3.982 2.791 4.7.921.794-2.07-2.456-4.789-4.33-3.621M75 69.441c0 1.977 1.628 2.812 4.009 2.056C82.175 70.492 81.456 68 78 68c-1.945 0-3 .507-3 1.441m29-.008c0 1.606 3.437 3.033 4.991 2.073C111.192 70.145 109.973 68 107 68c-1.937 0-3 .507-3 1.433M148 70c0 1.467.667 2 2.5 2s2.5-.533 2.5-2-.667-2-2.5-2-2.5.533-2.5 2m29.446-.913c-1.035 1.674 1.106 3.19 3.453 2.445 2.935-.931 2.684-3.532-.34-3.532-1.343 0-2.743.489-3.113 1.087M75.19 79.75c.213 1.104 1.25 1.75 2.81 1.75s2.597-.646 2.81-1.75C81.073 78.383 80.459 78 78 78s-3.073.383-2.81 1.75m29 0c.213 1.104 1.25 1.75 2.81 1.75s2.597-.646 2.81-1.75c.263-1.367-.351-1.75-2.81-1.75s-3.073.383-2.81 1.75M148 80c0 1.467.667 2 2.5 2s2.5-.533 2.5-2-.667-2-2.5-2-2.5.533-2.5 2m29.19-.25c.213 1.104 1.25 1.75 2.81 1.75s2.597-.646 2.81-1.75c.263-1.367-.351-1.75-2.81-1.75s-3.073.383-2.81 1.75M75.667 87.667C74.007 89.326 75.179 91 78 91c2.333 0 3-.444 3-2 0-1.429-.667-2-2.333-2-1.284 0-2.634.3-3 .667m29.042-.043c-1.717 1.718-.556 3.376 2.364 3.376 2.388 0 2.999-.391 2.74-1.75-.341-1.79-3.829-2.901-5.104-1.626M148 89c0 1.429.667 2 2.333 2 1.284 0 2.603-.269 2.931-.598 1.246-1.245-.575-3.402-2.871-3.402-1.726 0-2.393.557-2.393 2m29.709-1.376c-1.717 1.718-.556 3.376 2.364 3.376 2.388 0 2.999-.391 2.74-1.75-.341-1.79-3.829-2.901-5.104-1.626M75.19 98.75c.213 1.104 1.25 1.75 2.81 1.75s2.597-.646 2.81-1.75C81.073 97.383 80.459 97 78 97s-3.073.383-2.81 1.75m29.345-.807c-1.035 1.676.364 3.057 3.097 3.057 1.855 0 2.427-.459 2.181-1.75-.375-1.968-4.272-2.934-5.278-1.307M148 99c0 1.429.667 2 2.333 2 1.284 0 2.603-.269 2.931-.598 1.246-1.245-.575-3.402-2.871-3.402-1.726 0-2.393.557-2.393 2m29.19-.25c.213 1.104 1.25 1.75 2.81 1.75s2.597-.646 2.81-1.75c.263-1.367-.351-1.75-2.81-1.75s-3.073.383-2.81 1.75m-110.606 3.891c-.527 1.373-.38 1.435.893.378 1.735-1.44 1.916-2.019.63-2.019-.491 0-1.176.739-1.523 1.641m83.166 4.048c-3.007.786-2.053 3.311 1.25 3.311 1.65 0 3-.188 3-.418 0-1.153-1.294-3.568-1.857-3.466-.354.064-1.43.322-2.393.573m28.5-.027c-2.517 1.016-1.3 3.338 1.75 3.338 3.233 0 4.205-2.324 1.418-3.393-.87-.334-1.657-.571-1.75-.528s-.73.306-1.418.583M66 109c-1.242.803-1.156.969.5.969 1.1 0 2.675-.436 3.5-.969 1.242-.803 1.156-.969-.5-.969-1.1 0-2.675.436-3.5.969m30 0c-1.242.803-1.156.969.5.969 1.1 0 2.675-.436 3.5-.969 1.242-.803 1.156-.969-.5-.969-1.1 0-2.675.436-3.5.969m-40.75 5.706c-1.237.238-2.25.852-2.25 1.364 0 1.398 2.368 1.119 4.559-.538 1.974-1.493 1.687-1.596-2.309-.826M86.5 115c-.34.55.282 1 1.382 1s2.278-.45 2.618-1-.282-1-1.382-1-2.278.45-2.618 1m70 1c.34.55 1.293 1 2.118 1s1.222-.45.882-1-1.293-1-2.118-1-1.222.45-.882 1m29 1c.34.55 1.293 1 2.118 1s1.222-.45.882-1-1.293-1-2.118-1-1.222.45-.882 1m-105.58 4.596c-1.156 1.394-1.023 1.552 1.05 1.25 1.305-.19 2.559-.908 2.785-1.596.593-1.799-2.269-1.541-3.835.346M165 121.5c.685.825 2.401 1.5 3.814 1.5 2.473 0 2.496-.055.627-1.468-1.067-.808-2.784-1.483-3.813-1.5-1.552-.027-1.66.225-.628 1.468m30 .444c0 .916 4.966 2.423 5.669 1.72.238-.238-.94-.911-2.618-1.496s-3.051-.686-3.051-.224m-149.75.718c-.687.278-1.25.917-1.25 1.421 0 1.363 2.236 1.053 4.441-.615 1.922-1.453 1.922-1.467 0-1.389-1.067.043-2.503.306-3.191.583m127.994 5.588c.226.688 1.726 1.373 3.333 1.523 2.788.26 2.834.202.982-1.25-2.346-1.841-4.883-2.001-4.315-.273m-98.577.417C73.399 129.934 74.008 131 76 131c1.111 0 2-.667 2-1.5 0-1.522-2.115-2.051-3.333-.833m130.892.801c2.19 1.657 4.441 1.981 4.441.639 0-1.032-2.435-2.107-4.773-2.107-1.328 0-1.27.256.332 1.468m-167.1 1.599c-.363.586-.454 1.272-.202 1.523.697.698 3.743-.683 3.743-1.697 0-1.252-2.743-1.117-3.541.174M179 135.941c0 1.061 1.874 2.408 3.746 2.692s2.708-1.731 1.132-2.729c-1.837-1.164-4.878-1.141-4.878.037m-109.376 1.597c-.644 1.678 1.631 3.04 3.328 1.992.576-.357 1.048-1.296 1.048-2.089 0-1.929-3.629-1.849-4.376.097M213 137.5c.685.825 2.145 1.5 3.245 1.5 1.664 0 1.791-.252.755-1.5-.685-.825-2.145-1.5-3.245-1.5-1.664 0-1.791.252-.755 1.5m-177.869 1.842c-.612.738-.821 1.634-.464 1.991.75.751 3.333-1.152 3.333-2.455 0-1.317-1.607-1.057-2.869.464m149.175 4.306c-1.82.734-.356 3.352 1.874 3.352 1.298 0 1.857-.567 1.643-1.667-.352-1.817-1.649-2.438-3.517-1.685m34.586 2.41c2.585 2.154 3.707 1.945 2.763-.515-.326-.849-1.619-1.528-2.874-1.51l-2.281.034zm-152.225-.391c-1.103 1.103-.76 2.083.96 2.743 1.832.704 4.644-1.162 3.803-2.523-.642-1.039-3.799-1.185-4.763-.22M33 147.5c0 .917.484 1.505 1.075 1.308s1.075-.786 1.075-1.308-.484-1.111-1.075-1.308S33 146.583 33 147.5m153.638 6c.317.825 1.428 1.5 2.469 1.5s1.893-.675 1.893-1.5c0-.928-.941-1.5-2.469-1.5-1.783 0-2.308.416-1.893 1.5m34.868.506c1.989 2.199 3.08 1.964 2.149-.463-.326-.849-1.351-1.543-2.279-1.543-1.539 0-1.527.175.13 2.006m-156.06 1.081c-.369.598-.246 1.513.274 2.033 1.255 1.255 4.28.035 4.28-1.727 0-1.641-3.58-1.882-4.554-.306M31 155.893c0 1.124 2.601 2.173 3.402 1.371C35.606 156.061 34.949 155 33 155c-1.1 0-2 .402-2 .893m191.667 4.774c-.919.918.487 3.333 1.94 3.333 1.815 0 1.808-2.627-.009-3.324-.771-.296-1.64-.3-1.931-.009m-34.973.972c-1.043 1.043.278 2.361 2.365 2.361 1.068 0 1.941-.675 1.941-1.5 0-1.483-3.07-2.097-4.306-.861m-155.465 2.549c.618 1.854 2.771 2.161 2.771.395 0-.87-.712-1.583-1.583-1.583s-1.406.534-1.188 1.188m32.958.562c.183.963 1.341 1.894 2.573 2.07 1.701.242 2.24-.179 2.24-1.75 0-1.557-.638-2.07-2.573-2.07-1.912 0-2.488.45-2.24 1.75M89 169c0 .55.477 1 1.059 1s.781-.45.441-1-.816-1-1.059-1-.441.45-.441 1m99.213 1.188c-1.877 1.876-1.44 2.983 1.037 2.632 1.238-.176 2.25-.957 2.25-1.737 0-1.904-1.791-2.392-3.287-.895M223 170.5c0 .825.675 1.5 1.5 1.5s1.5-.675 1.5-1.5-.675-1.5-1.5-1.5-1.5.675-1.5 1.5m-190 1.3c0 1.035 2.165 3.2 3.2 3.2 1.465 0 .825-2.777-.782-3.393-2.07-.794-2.418-.767-2.418.193m33.226 1.379c.706 2.118 3.603 3.392 4.859 2.136.628-.628.838-1.63.469-2.228-.922-1.491-5.827-1.407-5.328.092M222 178.583c0 1.766 2.153 1.459 2.771-.395.218-.654-.317-1.188-1.188-1.188-.87 0-1.583.713-1.583 1.583m-35.869.759c-1.321 1.592-.505 2.658 2.036 2.658 1.166 0 1.833-.727 1.833-2 0-2.28-2.21-2.656-3.869-.658M36 180.893c0 1.014 3.046 2.395 3.743 1.697.252-.251.161-.937-.202-1.523-.798-1.291-3.541-1.426-3.541-.174m33.638 1.607c.317.825 1.653 1.5 2.969 1.5 1.46 0 2.393-.585 2.393-1.5 0-.996-.997-1.5-2.969-1.5-2.228 0-2.825.374-2.393 1.5m149.707 4.043c-.326.849-.322 1.813.007 2.143.713.712 3.648-1.548 3.648-2.808 0-1.51-3.032-.957-3.655.665M40 188.058c0 1.088 3.986 3.29 4.686 2.59.283-.283.251-.941-.07-1.461-.793-1.283-4.616-2.218-4.616-1.129m143.295.39c-.941 1.071-.941 1.469 0 1.815 1.832.673 3.705-.261 3.705-1.846 0-1.79-2.122-1.772-3.705.031M74.244 190.25c.226.688 1.7 1.401 3.276 1.585 2.517.294 2.706.142 1.551-1.25-1.563-1.883-5.423-2.151-4.827-.335m141.199 4.168c-1.067.78-1.642 1.717-1.277 2.081.843.843 4.834-1.25 4.834-2.534 0-1.364-1.299-1.198-3.557.453m-167.231 1.717c.459 1.377 4.788 3.179 4.788 1.993 0-.444-1.165-1.338-2.59-1.987-1.977-.901-2.497-.902-2.198-.006m132.038-.427c-1.332.489-1.762 3.302-.5 3.277.412-.009 1.421-.44 2.242-.959 1.727-1.092.256-3.05-1.742-2.318M80 197.981c0 1.198 4.828 2.524 5.768 1.585.869-.869-1.749-2.531-4.018-2.551-.963-.008-1.75.426-1.75.966m129.219 4.356c-1.255.697-1.998 1.551-1.651 1.898.791.79 5.432-1.257 5.432-2.396 0-1.145-1.078-1.003-3.781.498m-76.406.346c.721.289 1.584.253 1.916-.079s-.258-.568-1.312-.525c-1.165.048-1.402.285-.604.604M58.5 204c.34.55 1.293 1 2.118 1s1.222-.45.882-1-1.293-1-2.118-1-1.222.45-.882 1m115.48.524c-.696.838-1.014 1.775-.708 2.081.892.892 4.844-1.608 4.197-2.655-.846-1.369-2.04-1.172-3.489.574m-85.43.364c1.505 1.406 5.45 2.344 5.45 1.296 0-.523-1.013-1.222-2.25-1.554-3.263-.874-4.32-.789-3.2.258M106.5 207c.34.55.816 1 1.059 1s.441-.45.441-1-.477-1-1.059-1-.781.45-.441 1m-37 3c.34.55 1.293 1 2.118 1s1.222-.45.882-1-1.293-1-2.118-1-1.222.45-.882 1m130 .666c-1.758 1.409-1.778 1.526-.168.969 1.007-.349 2.47-.635 3.25-.635s1.418-.45 1.418-1c0-1.485-2.227-1.155-4.5.666m-100.75-.004c.688.278 1.813.278 2.5 0 .688-.277.125-.504-1.25-.504s-1.937.227-1.25.504m67.917 1.005c-.923.922-.837 2.333.142 2.333.445 0 1.682-.661 2.75-1.468 1.907-1.443 1.905-1.469-.142-1.5-1.146-.018-2.384.268-2.75.635M188 217c-1.333.862-1.333.963 0 .914.825-.03 2.4-.441 3.5-.914l2-.859-2-.055c-1.1-.031-2.675.381-3.5.914m-30 1c0 .55.648 1 1.441 1s1.719-.45 2.059-1-.309-1-1.441-1-2.059.45-2.059 1m-17.714 7.5c.008 2.75.202 3.756.432 2.236s.223-3.77-.014-5-.425.014-.418 2.764M148 228c0 1.737.511 2.074 2.75 1.816 1.637-.188 2.75-.923 2.75-1.816s-1.113-1.628-2.75-1.816c-2.239-.258-2.75.079-2.75 1.816m29.535-1.057c-1.035 1.676.364 3.057 3.097 3.057 1.855 0 2.427-.459 2.181-1.75-.375-1.968-4.272-2.934-5.278-1.307m11.83 11.557c.003 5.5.171 7.622.373 4.716.203-2.905.201-7.405-.004-10s-.371-.216-.369 5.284m-49.286-3.917c.048 1.165.285 1.402.604.605.289-.722.253-1.585-.079-1.917s-.568.258-.525 1.312m7.921 3.264c0 1.62.452 1.859 2.481 1.317 3.239-.867 3.267-2.578.05-2.98-1.962-.246-2.531.128-2.531 1.663m29-.464c0 1.489 2.712 2.557 4.75 1.871 2.563-.862 1.276-3.254-1.75-3.254-1.888 0-3 .513-3 1.383m-36.921 3.2c.048 1.165.285 1.402.604.605.289-.722.253-1.585-.079-1.917s-.568.258-.525 1.312m10.171 5.186c-3.075.506-2.913 3.231.191 3.231 2.612 0 4.344-1.712 2.922-2.888-.475-.393-1.875-.547-3.113-.343M140.158 248c0 1.375.227 1.938.504 1.25.278-.687.278-1.812 0-2.5-.277-.687-.504-.125-.504 1.25m37.086-.75c.637 1.941 5.756 2.222 5.756.316 0-1.083-.951-1.566-3.083-1.566-2.019 0-2.942.432-2.673 1.25m-37.165 6.333c.048 1.165.285 1.402.604.605.289-.722.253-1.585-.079-1.917s-.568.258-.525 1.312"/><path fill="#1976D2" fill-opacity=".758" fill-rule="evenodd" d="M137.411 11.75c-3.935 3.988-7.405 7.25-7.711 7.25s-1.152-.565-1.879-1.255c-.726-.69-4.296-3.84-7.932-7L113.278 5H72v49.95c0 46.517-.12 50.021-1.75 50.97-1.667.971-1.667 1.021 0 1.05 2.044.035 2.284 1.366.5 2.767-1.847 1.451-7.322 2.288-8.354 1.278-.516-.505-1.958-.284-3.396.518-1.897 1.06-2.078 1.405-.75 1.432.962.019 1.75.475 1.75 1.012 0 1.795-4.95 4.266-7.551 3.769-1.648-.315-3.324.2-4.748 1.459l-2.201 1.947 2.249-.482c1.237-.265 2.509-.062 2.826.452.99 1.602-3.878 4.93-6.704 4.583-1.71-.21-3.023.309-3.758 1.486-.977 1.565-.791 1.809 1.379 1.809 1.379 0 2.508.38 2.508.845 0 1.754-3.998 4.389-5.903 3.891-1.187-.311-2.192.069-2.532.956-.97 2.528-.633 3.138 1.435 2.598 1.283-.336 1.995-.033 1.985.843-.026 2.296-1.364 3.648-3.975 4.016-1.369.193-2.633 1.103-2.808 2.023-.238 1.249.201 1.535 1.74 1.133 1.68-.439 2.058-.07 2.058 2.009 0 1.876-.59 2.631-2.24 2.866-1.232.176-2.395 1.136-2.585 2.133-.205 1.075.198 1.74.989 1.632 2.862-.39 3.836.132 3.836 2.055 0 1.996-.865 2.402-4.338 2.037-2.84-.298-1.632 3.263 1.343 3.96 1.575.369 2.613 1.4 2.815 2.794.26 1.804-.167 2.209-2.334 2.209-3.148 0-2.924 2.338.27 2.81 1.154.171 2.632.952 3.283 1.737 1.723 2.076.497 4.406-1.978 3.759-1.711-.448-2.061-.074-2.061 2.2 0 2.317.23 2.548 1.495 1.498 1.205-1 1.981-.922 4 .401 2.719 1.781 3.378 4.595 1.076 4.595-.785 0-2.195-.767-3.132-1.703-1.604-1.605-1.659-1.561-.94.75 1.064 3.421 3.611 6.787 8.667 11.453 2.384 2.2 3.771 3.348 3.084 2.55-1.911-2.216-1.514-2.82 1.5-2.281 2.904.52 6.25 2.91 6.25 4.465 0 .509-1.462.643-3.25.298-3.122-.602-3.171-.562-1.25.994 2.938 2.381 5.885 3.906 5.104 2.643-1.148-1.859 1.116-2.184 4.721-.678 5.251 2.194 5.893 3.968 1.158 3.2-3.812-.619-3.818-.614-1.441 1.051 1.314.92 4.429 1.726 6.923 1.791 6.863.18 8.035.384 8.035 1.397 0 .512-1.013 1.126-2.25 1.364s4.5.434 12.75.434 13.987-.195 12.75-.434c-3.36-.647-2.878-3.119.5-2.567l2.75.45-3-2.082c-2.482-1.722-3.056-1.824-3.323-.588-.592 2.733-8.177.791-8.177-2.094 0-1.307.659-1.512 3.278-1.021l3.278.615-6.074-6.412C79.867 189.557 72 173.801 72 166.59c0-1.287-.28-3.741-.623-5.453-.509-2.545-1.011-3.023-2.75-2.615-2.826.662-4.915-.815-4.442-3.142.297-1.461 1.209-1.855 4.098-1.766 3.246.1 3.717-.178 3.717-2.188 0-1.891-.492-2.269-2.75-2.114-2.317.158-2.75-.206-2.75-2.312 0-2.184.411-2.481 3.25-2.353 1.788.082 3.25-.219 3.25-.668 0-.448.244-1.453.543-2.231.376-.979-.164-1.39-1.75-1.332-1.802.066-2.293-.452-2.293-2.416 0-2.11.468-2.501 3-2.504 3.242-.004 5.5-1.053 5.5-2.555 0-.518-1.05-.941-2.333-.941-3.139 0-3.781-.844-2.368-3.108 1.315-2.105 5.7-2.599 5.702-.642.001.688 1.126-.057 2.5-1.656 2.957-3.438 3.103-3.975.749-2.764-3.674 1.889-5.753-.969-2.5-3.438 2.249-1.707 2.799-1.701 4.554.055 1.263 1.263 1.74 1.135 3.746-1L90.349 117h-2.675c-2.891 0-3.368-.906-1.474-2.8 1.821-1.821 6.153-1.563 5.429.323-.644 1.678 1.091.995 4.871-1.918 1.978-1.525 1.976-1.542-.25-1.573-2.569-.037-3.051-2.511-.668-3.425 2.489-.955 6.217-.71 6.598.434.314.94 3.428-.106 8.82-2.962 1.243-.659 1.546-4.246 1.771-20.937.149-11.078.564-20.142.922-20.142.567 0 10.39 8.159 14.128 11.736 2.295 2.195 3.796 1.425 9.467-4.853 3.039-3.364 5.974-5.839 6.522-5.5.623.385.939 9.394.843 24.065-.131 20.023.066 23.531 1.347 24.01 5.506 2.058 7.464 2.409 8.06 1.444.862-1.393 7.161.261 7.752 2.035.326.976-.275 1.208-2.181.843-3.279-.626-3.303-.267-.126 1.815 1.941 1.272 2.822 1.379 3.913.473 1.083-.899 2.233-.823 4.995.331 5.948 2.485 4.123 4.896-1.957 2.584-2.122-.807-1.325.44 3.861 6.042 5.935 6.41 12.555 17.532 13.974 23.475.41 1.719.493 1.745.593.187.091-1.426.811-1.747 3.366-1.5 2.545.245 3.323.827 3.585 2.682.308 2.176.043 2.336-3.25 1.951-3.638-.425-4.246.293-3 3.541.432 1.127 1.172 1.302 2.834.67 2.822-1.073 4.889.133 4.418 2.577-.494 2.563-3.891 3.015-5.646.751-1.348-1.74-1.402-1.698-.83.641.337 1.375.618 3.071.625 3.769.009.837.827 1.065 2.405.669 2.803-.703 4.007.733 3.075 3.67-.518 1.631-1.293 1.998-3.526 1.67-1.845-.271-3.055.078-3.402.983-.957 2.495-.576 3.386 1.212 2.829 2.44-.759 4.519.788 4.073 3.03-.273 1.377-1.236 1.877-3.598 1.87-2.415-.007-3.225.433-3.225 1.75 0 1.093.758 1.76 2 1.76 2.445 0 2.707 3.168.419 5.067-1.175.975-2.029 1.033-3.323.225-1.377-.86-1.989-.693-2.919.796-1.642 2.63-1.514 2.912 1.323 2.912 1.457 0 2.5.575 2.5 1.378 0 2.158-2.571 3.753-5.516 3.423-1.93-.216-3.145.377-4.311 2.105-1.566 2.32-1.552 2.367.405 1.32 1.205-.645 2.601-.733 3.436-.217 1.172.724 1.096 1.212-.459 2.93-2.08 2.298-5.156 2.727-5.826.811-.314-.899-1.039-.715-2.583.655-2.826 2.509-2.712 3.426.354 2.84 1.796-.344 2.5-.042 2.5 1.071 0 1.897-3.327 3.07-6.47 2.281-1.535-.385-3.124.099-4.677 1.425l-2.353 2.009 2.761-.627c2.248-.51 2.649-.332 2.154.958-.652 1.697-6.599 3.26-8.332 2.189-.575-.355-3.305.156-6.065 1.136L144 222.469V253h41v-15.443c0-14.825.089-15.506 2.223-17l2.222-1.557h-2.222c-1.223 0-2.223-.395-2.223-.879 0-1.522 5.746-3.334 8.684-2.738 1.638.332 3.862-.032 5.316-.87l2.5-1.442-2.75-.036c-1.512-.019-2.75-.388-2.75-.819 0-1.571 6.205-4.41 8.626-3.947 1.562.298 3.282-.242 4.673-1.468l2.201-1.94-2.75.588c-1.968.422-2.75.192-2.75-.808 0-2.225 2.911-4.041 6.478-4.041 2.103 0 3.702-.659 4.431-1.825 1.02-1.635.866-1.757-1.484-1.167-2.187.549-2.564.351-2.267-1.19.499-2.592 5.609-5.37 6.694-3.64.579.925 1.12.578 1.953-1.25 1.064-2.334.962-2.528-1.326-2.528-4.64 0-2.465-4.463 2.511-5.154 1.369-.19 2.628-1.075 2.798-1.967.237-1.245-.282-1.507-2.24-1.133-2.206.422-2.548.136-2.548-2.129 0-2.241.431-2.617 3-2.617 2.24 0 3-.463 3-1.829 0-1.247-.707-1.805-2.219-1.75-1.4.05-2.357-.606-2.594-1.777-.546-2.707 1.358-4.267 3.271-2.679 1.324 1.099 1.542.901 1.542-1.402 0-1.495-.433-2.413-.979-2.076-1.39.859-5.021-1.284-5.021-2.963 0-2.098 1.702-2.754 3.979-1.535 2.095 1.121 2.502.428 1.414-2.407-.334-.87-1.668-1.582-2.965-1.582-2.942 0-5.331-3.716-2.971-4.622.849-.326 2.254-.319 3.122.014 1.32.506 1.462.071.867-2.643-.392-1.787-1.446-4.618-2.342-6.29-2.493-4.657-9.482-12.825-9.9-11.571-.939 2.818-9.204-.287-9.204-3.458 0-1.263.486-1.254 3.654.07 6.917 2.89 4.83.575-4.393-4.872-.838-.496-1.046-.231-.643.82.382.994.035 1.552-.964 1.552-2.435 0-6.486-2.12-7.098-3.715-.439-1.144.12-1.318 2.695-.836l3.249.607-3.957-2.158c-2.599-1.417-4.086-1.77-4.333-1.028-.494 1.483-3.156 1.434-6.503-.12-3.419-1.588-3.455-2.75-.085-2.75 2.11 0 2.4-.268 1.484-1.373-.823-.991-1.125-16.215-1.087-54.75l.053-53.377-20.254-.5-20.253-.5zM75 12c0 2.925.209 3.107 3.25 2.813 2.716-.262 3.25-.723 3.25-2.813s-.534-2.551-3.25-2.813C75.209 8.893 75 9.075 75 12m28.362-1.5c-1.014 2.64.449 4.5 3.539 4.5 2.998 0 4.987-2.755 3.605-4.991-.978-1.581-6.495-1.202-7.144.491m44 0c-1.023 2.664.449 4.5 3.607 4.5 2.701 0 3.031-.326 3.031-3s-.33-3-3.031-3c-1.772 0-3.271.623-3.607 1.5m29.024-.064c-1.138 2.966.399 4.711 3.857 4.378 2.724-.263 3.257-.723 3.257-2.814s-.533-2.551-3.257-2.814c-2.243-.216-3.444.173-3.857 1.25m-62.719.231c-1.081 1.081-.762 7.333.375 7.333.573 0 1.999-.892 3.17-1.983 2.067-1.925 2.075-2.042.303-4-1.934-2.138-2.768-2.43-3.848-1.35m26.801 1.368c-1.793 1.982-1.787 2.091.244 4.122 2.445 2.445 4.115 1.834 3.78-1.382-.13-1.251-.294-2.837-.364-3.525-.187-1.827-1.564-1.531-3.66.785m-20.218 6.639c-2.814 1.964-2.871 3.923-.156 5.376 1.733.928 2.51.731 4.499-1.137 2.252-2.116 2.299-2.375.751-4.086-1.966-2.172-2.189-2.179-5.094-.153m13.408.152c-1.571 1.736-1.548 1.995.385 4.224 1.633 1.882 2.412 2.153 3.759 1.303 2.318-1.462 2.135-4.319-.386-5.993-1.828-1.214-2.29-1.156-3.758.466M75 21.563c0 2.29.347 2.53 3.25 2.25 2.491-.24 3.325-.838 3.57-2.563.28-1.973-.121-2.25-3.25-2.25-3.165 0-3.57.291-3.57 2.563m28.18-.313c.408 2.867 6.187 3.841 7.196 1.214.961-2.506-.147-3.464-4.005-3.464-3.068 0-3.47.283-3.191 2.25m43.82.25c0 2.19.433 2.5 3.5 2.5s3.5-.31 3.5-2.5-.433-2.5-3.5-2.5-3.5.31-3.5 2.5m29.172-.315c.272 1.917.93 2.315 3.828 2.315 2.833 0 3.5-.381 3.5-2 0-1.597-.772-2.064-3.828-2.315-3.502-.288-3.8-.118-3.5 2m-49.044 4.438-2.274 1.593 2.247 2.392c2.71 2.884 4.036 3.004 5.595.507.978-1.566.799-2.241-1.058-3.985-2.084-1.958-2.39-1.992-4.51-.507m-51.415 2.998c-.392.392-.713 1.791-.713 3.109 0 2.102.4 2.358 3.25 2.083 2.716-.262 3.25-.723 3.25-2.813 0-1.932-.576-2.567-2.537-2.796-1.396-.163-2.859.025-3.25.417m28.439.264c-2.452 1.554-.897 4.59 2.521 4.922 2.512.244 3.297-.138 3.849-1.875 1.031-3.25-3.004-5.18-6.37-3.047m43.561-.264c-.392.392-.713 1.762-.713 3.046 0 2.008.497 2.333 3.566 2.333 3.301 0 3.543-.205 3.25-2.75-.241-2.096-.92-2.82-2.853-3.046-1.396-.163-2.859.025-3.25.417m29.439.264c-.742.47-1.186 1.701-.987 2.735.272 1.41 1.231 1.88 3.835 1.88s3.563-.47 3.835-1.88c.382-1.987-1.33-3.589-3.835-3.589-.825 0-2.107.384-2.848.854m-57.485 3.782c-2.371 2.37 1.624 7.203 4.911 5.941 1.734-.665 1.861-3.769.222-5.408-1.307-1.307-4.072-1.595-5.133-.533M75 41c0 2.925.209 3.107 3.25 2.813 2.716-.262 3.25-.723 3.25-2.813s-.534-2.551-3.25-2.813C75.209 37.893 75 38.075 75 41m28.362-1.5c-1.008 2.626.449 4.5 3.5 4.5 3.05 0 4.507-1.874 3.5-4.5-.33-.86-1.823-1.5-3.5-1.5s-3.17.64-3.5 1.5m10.138.5c-1.512 4.765 2.551 8.053 5.524 4.471 1.053-1.269.874-1.951-1.052-4-2.812-2.994-3.644-3.081-4.472-.471m33.5 1c0 2.762.278 3 3.5 3s3.5-.238 3.5-3-.278-3-3.5-3-3.5.238-3.5 3m29.386-1.564c-1.138 2.966.399 4.711 3.857 4.378 2.724-.263 3.257-.723 3.257-2.814s-.533-2.551-3.257-2.814c-2.243-.216-3.444.173-3.857 1.25M75.323 48.601c-.96 2.501.198 4.907 2.213 4.601C81.153 52.654 82 52.075 82 50.145c0-2.308-5.864-3.664-6.677-1.544m29.868-.88c-3.292.618-2.573 4.41 1.018 5.364 3.344.889 5.75-1.342 4.162-3.859-1.174-1.86-2.005-2.102-5.18-1.505m42.261.161c-.249.248-.452 1.501-.452 2.785 0 1.822.548 2.333 2.5 2.333h3.25c.412 0 .75-1.198.75-2.663 0-2.22-.465-2.683-2.798-2.785-1.539-.067-3.002.081-3.25.33m29.409.204c-.582.359-.897 1.5-.701 2.534.472 2.488 6.569 3.25 7.459.931 1.226-3.195-3.376-5.555-6.758-3.465m-36.304 5.851c-1.674 1.85-1.663 2.033.269 4.106 2.485 2.668 4.156 1.845 3.673-1.809a148 148 0 0 1-.43-3.484c-.123-1.336-1.716-.797-3.512 1.187M75 60c0 2.925.209 3.107 3.25 2.813 2.716-.262 3.25-.723 3.25-2.813s-.534-2.551-3.25-2.813C75.209 56.893 75 57.075 75 60m28.362-1.5c-1.015 2.643.449 4.5 3.548 4.5 3.424 0 4.484-1.184 3.587-4.009-.771-2.431-6.246-2.808-7.135-.491m44.305-.833c-.367.366-.667 1.716-.667 3 0 2 .5 2.333 3.5 2.333 3.222 0 3.5-.238 3.5-3 0-2.627-.352-3-2.833-3-1.559 0-3.134.3-3.5.667m28.719.769c-1.138 2.966.399 4.711 3.857 4.378 2.724-.263 3.257-.723 3.257-2.814s-.533-2.551-3.257-2.814c-2.243-.216-3.444.173-3.857 1.25m-42.719 2.231c-1.89 1.889.702 6.333 3.694 6.333 2.023 0 3.101-3.739 1.599-5.548-1.254-1.511-4.139-1.939-5.293-.785m-58 6c-.367.366-.667 1.97-.667 3.563 0 2.664.26 2.872 3.242 2.583 2.266-.219 3.352-.895 3.609-2.247.542-2.86-4.22-5.863-6.184-3.899m28.373.785c-2.072 2.496-.832 5.018 2.633 5.355 2.481.241 3.299-.143 3.824-1.798 1.275-4.017-3.769-6.796-6.457-3.557m22.479.527c-1.731 1.913-1.711 2.047.595 3.967 3.006 2.504 4.548 2.555 5.812.192.778-1.454.497-2.331-1.279-4-2.784-2.615-2.902-2.619-5.128-.159m20.891-.604c-1.208 3.147.029 5.118 3.417 5.443 3.198.308 3.299.207 2.991-3-.267-2.783-.762-3.369-3.074-3.635-1.758-.202-2.965.229-3.334 1.192m30.77-.318c-3.614 1.449-2.606 5.353 1.485 5.75 2.489.241 3.307-.142 3.832-1.798.371-1.168.132-2.751-.537-3.557-1.371-1.652-1.598-1.671-4.78-.395M75 79.27c0 3.159.426 3.468 4.048 2.936 2.443-.358 2.998-.878 2.756-2.577-.227-1.592-1.125-2.208-3.554-2.442-2.85-.275-3.25-.019-3.25 2.083m28.667-1.603c-1.64 1.64-.524 4.128 2.083 4.644 3.186.631 5.824-1.372 4.918-3.733-.604-1.574-5.679-2.234-7.001-.911M147 79.5c0 2.19.433 2.5 3.5 2.5s3.5-.31 3.5-2.5-.433-2.5-3.5-2.5-3.5.31-3.5 2.5m29.714-1.881c-.393.393-.714 1.566-.714 2.608 0 1.577.628 1.842 3.75 1.583 2.98-.246 3.75-.721 3.75-2.31 0-1.496-.766-2.075-3.036-2.297-1.67-.164-3.357.024-3.75.416M75.667 86.667C75.3 87.033 75 88.412 75 89.73c0 2.102.4 2.358 3.25 2.083 4.108-.396 5.244-4.18 1.552-5.169-2.941-.788-3.327-.786-4.135.023m29.025.034c-3.047.789-1.739 4.737 1.699 5.129 3.338.381 4.901-1.416 3.504-4.026-.965-1.804-1.81-1.983-5.203-1.103m43.021-.08c-.392.392-.713 1.762-.713 3.046 0 2.008.497 2.333 3.566 2.333 3.301 0 3.543-.205 3.25-2.75-.241-2.096-.92-2.82-2.853-3.046-1.396-.163-2.859.025-3.25.417m29.979.08c-1.184.306-1.702 1.216-1.5 2.634.248 1.747.981 2.165 3.794 2.165 2.617 0 3.577-.469 3.849-1.88.556-2.891-1.846-4.033-6.143-2.919M75 98.437c0 2.272.405 2.563 3.57 2.563 3.129 0 3.53-.277 3.25-2.25-.245-1.725-1.079-2.323-3.57-2.563-2.903-.28-3.25-.04-3.25 2.25m28.667-1.77c-.367.366-.667 1.491-.667 2.5 0 1.422.771 1.833 3.441 1.833 3.768 0 4.892-.969 3.955-3.41-.606-1.579-5.414-2.239-6.729-.923M147 98.5c0 2.19.433 2.5 3.5 2.5s3.5-.31 3.5-2.5-.433-2.5-3.5-2.5-3.5.31-3.5 2.5m29.714-1.881c-.393.393-.714 1.539-.714 2.548 0 1.477.79 1.833 4.07 1.833 3.648 0 4.036-.233 3.75-2.25-.24-1.685-1.082-2.325-3.356-2.547-1.67-.164-3.357.024-3.75.416m-29.262 9.263c-.249.248-.452 1.501-.452 2.785 0 2.008.497 2.333 3.566 2.333 3.277 0 3.541-.217 3.25-2.668-.254-2.145-.865-2.691-3.114-2.785-1.539-.065-3.002.086-3.25.335m28.908 1.621c-.886 2.309.911 3.709 4.268 3.325 2.096-.239 2.872-.868 2.872-2.328 0-2.65-6.174-3.512-7.14-.997M171 126.845c0 1.705 3.732 4.155 6.329 4.155 3.126 0 3.388-1.041.842-3.345-1.888-1.709-7.171-2.306-7.171-.81m7 8.455c0 2.126 2.212 3.7 5.2 3.7 3.15 0 3.548-1.109 1.229-3.429-1.898-1.897-6.429-2.088-6.429-.271m33 .677c0 1.459 4.669 4.238 6.478 3.856 1.434-.303 1.433-.537-.007-2.583-1.572-2.232-6.471-3.196-6.471-1.273m-28.475 6.982c-.999 1.617 1.825 5.041 4.157 5.041 2.842 0 3.686-1.443 2.329-3.979-1.12-2.093-5.414-2.795-6.486-1.062m33.961.064c-1.087 1.758 1.532 4.977 4.049 4.977 1.356 0 2.465-.482 2.465-1.071 0-2.396-5.434-5.654-6.514-3.906M64 164.437c0 2.272.405 2.563 3.57 2.563 3.129 0 3.53-.277 3.25-2.25-.245-1.725-1.079-2.323-3.57-2.563-2.903-.28-3.25-.04-3.25 2.25m2.184 9.313c.248 2.16.906 2.818 3.066 3.066 2.471.285 2.75.006 2.75-2.75S71.689 171 68.934 171s-3.035.279-2.75 2.75m2.996 7.968c.268 2.327.852 2.833 3.57 3.095 5.094.492 4.04-4.44-1.151-5.381-2.5-.453-2.71-.254-2.419 2.286M39 187.376c0 1.827 3.764 4.624 6.223 4.624 2.257 0 2.268-1.259.027-3.227-2.751-2.416-6.25-3.198-6.25-1.397m33.585 1.486C71.573 190.501 74.96 193 78.193 193c2.937 0 2.996-.084 1.566-2.25-1.557-2.358-6.138-3.564-7.174-1.888M79 197.378c0 2.256 2.659 3.78 6.004 3.44l3.134-.318-2.108-2.25c-2.329-2.486-7.03-3.069-7.03-.872m26.269 14.315c.973.254 2.323.237 3-.037s-.119-.481-1.769-.461-2.204.244-1.231.498m42.444 13.928c-.392.392-.713 1.762-.713 3.046 0 2.008.497 2.333 3.566 2.333 3.301 0 3.543-.205 3.25-2.75-.241-2.096-.92-2.82-2.853-3.046-1.396-.163-2.859.025-3.25.417m28.79 1.37c-.891 2.806.159 4.009 3.497 4.009s4.388-1.203 3.497-4.009C183.06 225.613 181.983 225 180 225s-3.06.613-3.497 1.991m-29.319 10.759c.266 2.319.787 2.75 3.316 2.75s3.05-.431 3.316-2.75c.294-2.553.057-2.75-3.316-2.75s-3.61.197-3.316 2.75m29.173-1.237C175.62 238.432 177.705 241 180 241s4.38-2.568 3.643-4.487C183.3 235.618 181.811 235 180 235s-3.3.618-3.643 1.513M147 247.5c0 2.19.433 2.5 3.5 2.5s3.5-.31 3.5-2.5-.433-2.5-3.5-2.5-3.5.31-3.5 2.5m29.36-.997c-.886 2.309.911 3.709 4.268 3.325 2.096-.239 2.872-.868 2.872-2.328 0-2.65-6.174-3.512-7.14-.997"/></svg>