<svg xmlns="http://www.w3.org/2000/svg" width="256" height="256"><path fill="#1976D2" fill-opacity=".016" fill-rule="evenodd" d="M0 128.004v128.004l128.25-.254 128.25-.254.254-127.75L257.008 0H0zm.485.496c0 70.4.119 99.053.265 63.672s.146-92.98 0-128S.485 58.1.485 128.5"/><path fill="#1976D2" fill-opacity=".183" fill-rule="evenodd" d="M19.234 6.75c1.161 8.788 5.951 23.062 10.485 31.25 2.168 3.914 7.018 9.922 12.19 15.1 9.756 9.766 19.774 15.446 33.216 18.833 14.596 3.678 19.44 3.622 39.375-.45 17.32-3.538 18.586-3.659 33.5-3.183 17.764.566 26.616 2.467 37.861 8.13 3.899 1.963 7.593 3.57 8.209 3.57 1.353 0-1.865-5.703-11.846-21-20.251-31.034-40.253-49.228-57.037-51.881-2.836-.449-5.379-.594-5.649-.323s.906 2.085 2.616 4.033c3.564 4.059 6.792 10.637 6.824 13.906l.022 2.236-4.98-1.963c-7.097-2.797-23.156-6.695-32.52-7.894-4.4-.563-14.975-1.257-23.5-1.543-10.794-.363-17.929-1.136-23.5-2.548-9.073-2.299-19.291-7.108-22.61-10.64C20.659 1.072 19.357 0 18.997 0c-.361 0-.254 3.037.237 6.75m203.244 71.719c-6.386 2.019-16.2 7.296-17.789 9.564-1.293 1.847-1.23 2.655.565 7.272 1.721 4.425 2 7.318 1.885 19.515-.179 19.103 1.732 22.453 7.948 13.93 4.625-6.343 7.579-12.488 15.009-31.227 7.634-19.254 7.675-20.59.619-20.424-2.318.054-6.025.671-8.237 1.37m-92.243 2.028c-42.632 7.728-73.35 35.933-79.269 72.783-.762 4.74-1.028 11.775-.681 18 2.789 50.118 41.384 86.933 88.512 84.43 12.607-.669 22.273-3.201 33.018-8.65 9.513-4.824 12.864-7.289 21.506-15.824 12.522-12.366 21.051-29.751 22.248-45.347.699-9.118-1.236-13.828-6.263-15.245-5.54-1.563-6.551-.475-10.812 11.635C193.333 196.946 174.624 209 157.02 209c-15.572 0-26.75-8.635-36.688-28.342l-3.45-6.843 3.309.843c1.82.463 8.709.811 15.309.772 10.877-.063 12.765-.358 20.174-3.152 39.127-14.757 55.231-52.905 32.636-77.31-12.357-13.347-34.22-18.795-58.075-14.471m-16.62 23.648c-7.499 7.018-8.614 24.691-3.03 48.039 1.425 5.961 1.929 6.799 4.656 7.75 4.737 1.651 10.916 1.268 14.469-.899 7.702-4.696 10.382-19.325 6.415-35.012-3.478-13.754-8.693-21.23-15.775-22.616-2.643-.518-3.727-.077-6.735 2.738"/><path fill="#1976D2" fill-opacity=".102" fill-rule="evenodd" d="M19.385 5.841c2.468 18.605 10.118 34.553 22.658 47.237 6.081 6.15 9.377 8.533 17 12.286 18.417 9.067 33.604 10.777 54.267 6.107 17.125-3.87 28.748-4.854 41.422-3.508 13.818 1.468 20.803 3.282 31.018 8.054 4.537 2.119 8.25 3.581 8.25 3.249 0-2.558-16.787-28.154-25.868-39.442-8.57-10.653-22.081-23.138-29.573-27.328-6.214-3.475-16.842-6.546-18.145-5.243-.358.358.987 2.566 2.99 4.906 3.188 3.725 7.314 13.457 6.183 14.587-.223.224-4.384-.953-9.246-2.614-15.002-5.125-27.879-7.237-49.841-8.173-12.543-.534-22.237-1.448-26-2.451C36.418 11.355 25.63 6.3 22.888 3.381 19.524-.2 18.663.404 19.385 5.841M224 78.567c-6.61 1.725-17.934 7.381-19.386 9.683-.767 1.217-.524 3.056.921 6.952 1.61 4.341 1.972 7.916 2.004 19.798.047 17.429-.013 17 2.372 17 4.271 0 10.726-11.26 20.447-35.667 6.021-15.119 6.303-16.272 4.442-18.133-1.516-1.516-3.894-1.435-10.8.367m-91.5 2.093c-32.158 5.027-60.532 23.908-72.841 48.469-6.573 13.115-8.852 22.599-8.86 36.871-.008 12.842 1.536 21.38 6.155 34.036 9.839 26.96 32.106 46.939 59.75 53.612 9.885 2.386 27.553 2.131 37.796-.546 33.116-8.654 58.569-37.222 60.229-67.602.44-8.05.272-9.278-1.596-11.629-2.959-3.725-6.85-4.245-9.788-1.307-1.29 1.29-2.345 3.153-2.346 4.141 0 .987-1.292 4.526-2.871 7.863-7.166 15.147-27.475 26.676-44.303 25.15-12.791-1.16-24.64-10.892-32.9-27.025-2.413-4.711-4.145-8.807-3.849-9.102s2.311-.024 4.48.603c5.812 1.68 19.971 1.398 27.444-.546 15.246-3.965 30.369-13.76 39.15-25.358 15.422-20.367 12.144-46.741-7.376-59.358-9.627-6.222-17.036-8.168-32.274-8.477-7.15-.145-14.35-.053-16 .205m-19.353 22.87c-7.288 6.133-8.69 25.165-3.48 47.264 2.118 8.984 4 10.626 12.24 10.674 9.439.054 14.029-4.861 16.236-17.388 1.733-9.841-2.059-27.647-7.636-35.854-5.017-7.383-11.94-9.256-17.36-4.696"/><path fill="#1976D2" fill-opacity=".43" fill-rule="evenodd" d="M19.625 5.247c2.422 15.871 9.547 32.814 18.072 42.979C54.47 68.224 82.547 77.665 108.5 72.032c20.32-4.41 27.504-5.256 40-4.712 14.756.643 24.559 2.683 34.998 7.282a3173 3173 0 0 0 9.32 4.095c1.984.857-11.238-20.384-20.234-32.506-17.367-23.401-33.183-35.749-49.433-38.594l-3.349-.587 3.231 3.68c3.914 4.459 6.915 10.796 6.945 14.667.018 2.337-.296 2.724-1.728 2.123-17.539-7.352-40.508-11.477-63.912-11.479-16.54-.002-31.195-4.192-41.099-11.752L18.975.994zm200.181 75.158c-6.936 2.448-12.737 5.602-14.736 8.011-.889 1.071-.672 2.829.939 7.61 1.78 5.286 2.061 8.269 1.873 19.916-.122 7.535.106 14.23.507 14.879 2.18 3.527 6.068-.655 12.384-13.321 5.749-11.528 15.452-36.471 14.824-38.107-.823-2.145-8.184-1.673-15.791 1.012"/></svg>