<svg xmlns="http://www.w3.org/2000/svg" width="256" height="256"><path fill="#1976D2" fill-opacity=".016" fill-rule="evenodd" d="M0 128.004v128.004l128.25-.254 128.25-.254.254-127.75L257.008 0H0zm.485.496c0 70.4.119 99.053.265 63.672s.146-92.98 0-128S.485 58.1.485 128.5"/><path fill="#1976D2" fill-opacity=".342" fill-rule="evenodd" d="M11 128v128h233V0H11zm112.5-93.601c6.882 3.144 19.371 13.294 23.829 19.368 7.622 10.383 10.814 22.693 8.701 33.557-1.501 7.717-7.629 21.011-11.96 25.943-2.93 3.338-3.063 3.733-1.25 3.733 4.048 0 17.605-8.3 23.819-14.583 7.929-8.017 10.676-14.633 10.764-25.917.054-6.996-.341-8.855-3.147-14.812-8.414-17.86-27.976-29.743-48.756-29.616l-7 .043zm-14.648 12.992c-6.5 2.322-11.586 7.336-14.488 14.281l-1.584 3.79-1.962-3.826c-2.68-5.222-3.361-3.934-1.175 2.221 2.152 6.06 1.099 7.767-2.249 3.643-8.054-9.921-10.204-11.968-14.828-14.121-4.055-1.889-6.663-2.346-13.066-2.292-4.4.037-9.8.616-12 1.287-3.9 1.191-3.999 1.333-3.952 5.691.065 5.975 3.444 12.64 9.56 18.852 7.261 7.377 9.928 8.553 19.436 8.569C80.632 85.5 86 83.641 86 80.825c0-1.22-9.227-10.516-12.5-12.595-1.872-1.189-1.84-1.229.5-.634 3.735.95 8.738 5.05 11.789 9.662 2.473 3.736 2.755 5.157 3.213 16.169.45 10.845.778 12.544 3.223 16.706 2.435 4.144 5.349 6.626 6.468 5.508.223-.224-.695-2.029-2.041-4.012-3.653-5.383-4.997-12.481-4.355-23.004.306-5.019 1.057-10.801 1.67-12.85 1.24-4.148 6.738-11.856 8.987-12.598.799-.264-.02 1.381-1.822 3.656-2.033 2.567-3.153 4.995-2.954 6.401.289 2.033.842 2.253 5.376 2.143 8.56-.208 17.056-6.197 21.095-14.87 2.73-5.863 2.947-9.211.794-12.284-1.306-1.866-2.472-2.216-7.25-2.179-3.131.024-7.335.63-9.341 1.347m9.866 24.046c-6.22 2.219-10.594 5.734-14.681 11.798-9.53 14.141-6.114 26.758 7.245 26.763 4.157.002 10.147-2.171 12.931-4.691 1.07-.968 1.787-1.157 1.787-.47 0 .63-.9 1.708-2 2.395-3.357 2.097-2.229 2.89 1.75 1.231 7.901-3.296 14.992-13.422 15.92-22.735.436-4.374.135-5.8-1.844-8.728-4.352-6.438-12.578-8.606-21.108-5.563m.342 2.864C115.378 75.475 107 82.839 107 84.9c0 .683 1.508-.357 3.351-2.311 3.924-4.16 10.793-7.536 15.399-7.567C127.537 75.01 129 74.55 129 74c0-1.282-5.498-1.115-9.94.301m63.315 6.569c-1.461 10.918-5.115 18.052-13.485 26.33-11.621 11.492-27.361 17.69-54.037 21.275-21.828 2.934-33.475 8.137-45.912 20.51C57.143 160.722 50 175.129 50 187.188v3.767l4.16-4.513c8.134-8.824 20.662-16.906 33.087-21.344 16.016-5.722 15.348-5.614 32.836-5.311 15.467.267 17.129.113 24.714-2.283 25.942-8.195 44.273-33.132 44.474-60.504.071-9.542-1.746-18.536-4.505-22.306-1.158-1.583-1.454-.815-2.391 6.176M52.151 87.318c-2.584 3.114-3.186 12.111-2.923 43.682.174 20.757.631 32.461 1.265 32.393.546-.059 2.273-2.309 3.836-5 1.564-2.691 4.412-6.52 6.329-8.509 3.4-3.526 3.495-3.847 3.852-13 .754-19.354 5.19-31.3 15.831-42.634 1.678-1.787 2.626-3.271 2.105-3.296-.52-.026-4.771-.167-9.446-.313-6.145-.193-9.851-.873-13.377-2.454-5.716-2.563-6.035-2.6-7.472-.869m110.516 107.349c-1.403 1.403-.618 5.214 1.192 5.788 3.869 1.228 7.354-2.288 5.036-5.082-1.185-1.427-5.067-1.867-6.228-.706m-26.928 4.583c-.262.688-1.054 4.496-1.761 8.463-1.551 8.708-.751 10.287 5.214 10.287 3.528 0 3.911-.239 3.604-2.25-.189-1.238-.895-2.137-1.57-2-.751.153-1.226-.912-1.226-2.75 0-2.271.457-3 1.883-3 1.215 0 2.053-.887 2.362-2.5.32-1.676.029-2.5-.884-2.5-.785 0-1.361-1.058-1.361-2.5 0-2.091-.474-2.5-2.893-2.5-1.591 0-3.107.563-3.368 1.25M91.5 203.313c-.214.653-1.253 5.574-2.309 10.937L87.27 224h3.254c2.903 0 3.322-.363 3.887-3.375.619-3.3.726-3.364 4.861-2.905 3.566.396 4.596.076 6.575-2.042 2.919-3.126 3.286-8.769.751-11.569-1.437-1.588-3.082-1.984-8.252-1.984-4.099 0-6.599.434-6.846 1.188m21.031 1.832c-4.594 5.46-2.393 12.855 3.826 12.855 1.784 0 3.732-.489 4.33-1.087.783-.783 1.275-.783 1.759 0 .37.598 2.168 1.087 3.996 1.087 2.447 0 3.458-.511 3.831-1.935.3-1.149-.087-2.163-.952-2.495-.814-.313-1.246-1.336-.977-2.315.265-.965.758-3.398 1.096-5.407l.614-3.652-7.496-.029c-7.121-.028-7.622.12-10.027 2.978m34.988-.863c-3.233 14.259-3.251 13.916.705 13.531 2.919-.283 3.303-.714 4.058-4.559.774-3.941 2.829-6.267 5.218-5.905.55.083 1.135-1.006 1.299-2.421.288-2.475.089-2.578-5.239-2.718-4.96-.13-5.591.086-6.041 2.072m12.554 3.968c-.653 3.438-1.417 7.037-1.697 8-.416 1.426.125 1.75 2.927 1.75 3.423 0 3.442-.026 4.624-6.25.653-3.437 1.417-7.037 1.697-8 .416-1.426-.125-1.75-2.927-1.75-3.423 0-3.442.026-4.624 6.25m11.226-3.64c-3.367 3.367-2.939 9.842.836 12.65 2.365 1.758 2.93 1.816 5.5.569 2.371-1.151 3.319-1.167 5.496-.096 1.448.712 3.36 1.016 4.25.674 1.808-.693 2.25-5.407.508-5.407-1.039 0-.702-4.36.71-9.182.432-1.474-.456-1.678-7.197-1.651-6.773.026-7.978.318-10.103 2.443m-74.324 4.437c-1.369 2.558-.125 4.321 2.669 3.783 1.211-.233 1.856-1.216 1.856-2.83 0-3.215-2.979-3.842-4.525-.953m20.726-1.415c-.385.386-.701 1.783-.701 3.104 0 1.92.452 2.339 2.25 2.084 1.644-.234 2.25-.989 2.25-2.806 0-2.414-2.315-3.865-3.799-2.382m58.31.855c-1.635 1.97-.57 4.513 1.89 4.513 2.03 0 3.705-3.21 2.605-4.991-.907-1.466-3.073-1.236-4.495.478"/><path fill="#1976D2" fill-opacity=".152" fill-rule="evenodd" d="M11 128v128h74c73.333 0 74-.018 74-2 0-1.1.45-2 1-2 1.439 0 1.234-2.738-.25-3.341-.941-.381-.879-.773.25-1.583 1.333-.956 1.333-1.196 0-2.152-1.129-.81-1.191-1.202-.25-1.583.893-.363 1.25-3.628 1.25-11.424 0-9.676-.199-10.933-1.75-11.059-.963-.078.05-.464 2.25-.858l4-.716-4.128-.142-4.128-.142 1.394-6.65c.767-3.658 1.162-6.883.878-7.167s-.516.234-.516 1.15c0 .99-.798 1.667-1.965 1.667-2.282 0-3.581 2.061-4.548 7.218l-.691 3.682h-8.408c-7.623 0-8.545-.211-9.886-2.257-1.306-1.993-1.305-3.169.009-10.038.819-4.28 1.489-7.966 1.489-8.193s1.852-.412 4.117-.412c3.624 0 4.054.239 3.593 2-.34 1.3-.03 2 .884 2 2.295 0 1.766 5.093-.594 5.71-1.1.288-2 .884-2 1.325s-.273 1.513-.607 2.383c-.391 1.02-.061 1.582.93 1.582.846 0 1.708 1.013 1.915 2.25.391 2.334 1.267-.195 3.378-9.75l.884-4 6-.129c3.3-.072 6.275.304 6.611.833.336.53.882.256 1.214-.608.332-.865.282-1.524-.111-1.466-2.55.38-3.032-.278-2.236-3.055.462-1.608.543-3.255.181-3.66s-.157-.449.457-.099.967 1.885.786 3.41c-.187 1.568-.092 1.905.218.774.302-1.1 1.199-2.509 1.994-3.132 1.253-.981 1.242-1.209-.085-1.718-1.679-.645-2.135-4.65-.529-4.65.629 0 1-6.625 1-17.875V152.25h-2.482c-1.447 0-2.216.429-1.845 1.03.352.57.151.729-.45.358-1.467-.907-8.297 2.434-7.526 3.681.337.545.12.686-.48.315-.601-.372-4.383.246-8.405 1.373-6.45 1.807-8.967 1.97-21.345 1.386-25.997-1.226-31.268 2.475-32.503 22.817-.562 9.257-1.082 11.586-3.828 17.165-4.432 9.002-10.962 15.929-18.451 19.572-6.809 3.313-13.399 4.648-15.62 3.164-2.339-1.561-1.663-34.452.915-44.531 5.2-20.335 20.817-37.7 40.602-45.147 8.03-3.023 12.507-4.037 26.341-5.966 6-.837 14.377-2.43 18.617-3.541 10.254-2.685 20.838-7.505 19.882-9.052-.472-.764-.301-.917.482-.433 1.445.893 7.541-3.132 11.677-7.71l2.919-3.231-3.069 2.764c-4.253 3.83-5.196 2.15-1.199-2.134 2.408-2.579 1.821-2.26-2.232 1.214-6.947 5.954-20.936 13.278-23.49 12.298-1.673-.642-1.562-.999 1.217-3.924 8.455-8.899 10.311-21.41 4.773-32.184-3.552-6.911-8.443-11.147-15.705-13.599-6.023-2.034-6.653-3.332-4.38-9.015 2.055-5.136 2.062-12.3.014-14.349-1.141-1.14-3.566-1.571-8.845-1.571-6.226 0-8.197.468-13.679 3.25-4.028 2.044-7.147 4.442-8.405 6.461-2.497 4.01-4.767 4.127-7.432.385-2.64-3.708-2.604-5.254.182-7.818 10.803-9.94 30.323-15.663 45.276-13.274 7.115 1.137 17.124 4.911 21.76 8.204 1.532 1.089 3.449 2.077 4.26 2.196s2.032.842 2.714 1.608c.993 1.114.841 1.105-.76-.043-1.1-.789.448 1.258 3.441 4.548s5.58 6.17 5.75 6.4c.17.229.309.106.309-.273s-1.912-2.784-4.25-5.345-3.463-4.365-2.5-4.009 1.77.549 1.794.429.3-10.456.612-22.969L168.223 0H11zm98.909-81.446c-5.803 1.787-12.973 8.043-15.408 13.445l-1.876 4.16-1.896-3.696c-2.516-4.903-4.371-3.245-2.196 1.962.869 2.079 1.442 4.65 1.273 5.713-.232 1.465-1.441.364-4.99-4.544-5.862-8.108-12.492-12.186-21.354-13.135-7.231-.774-16.391.854-19.649 3.492l-2.25 1.821 1.846 5.864c3.053 9.698 11.424 19.725 19.169 22.961C70.058 87.722 86 85.464 86 81.279c0-2.364-5.478-8.989-9.42-11.394-1.694-1.032-2.498-1.879-1.787-1.881 1.96-.006 10.854 8.703 12.035 11.784.571 1.492 1.218 7.662 1.437 13.712.31 8.597.848 11.874 2.46 15 2.63 5.101 5.731 7.923 7.825 7.119 1.404-.538 1.276-1.037-.937-3.667-3.582-4.258-4.958-9.99-4.916-20.488.044-10.813 2.289-19.403 6.088-23.285 1.493-1.526 1.995-1.854 1.114-.727-2.553 3.266-2.857 5.163-1.205 7.522 1.275 1.82 2.145 2.091 4.996 1.556 1.899-.356 4.208-.935 5.131-1.286.923-.352-.218 1.521-2.538 4.161C101.484 84.869 98 93.169 98 99.138c0 3.303.649 4.711 3.474 7.536l3.475 3.475 11.06-.397 11.06-.396 5.048-4.928c12.284-11.993 13.836-26.095 3.579-32.528-2.581-1.618-4.555-1.944-10.256-1.692l-7.06.312 3.417-4.477c4.252-5.57 5.203-8.03 5.203-13.453 0-5.575-2.189-7.613-8.079-7.52-2.431.038-6.487.706-9.012 1.484m68.17 25.029c.048 1.165.285 1.402.604.605.289-.722.253-1.585-.079-1.917s-.568.258-.525 1.312M117 75.954c-1.925 1.027-4.849 3.369-6.498 5.206l-2.998 3.34 3.498-3.13c3.755-3.36 6.864-5.185 10.94-6.422 1.996-.606 2.119-.785.558-.818-1.1-.023-3.575.798-5.5 1.824M181.158 77c0 1.375.227 1.938.504 1.25.278-.687.278-1.812 0-2.5-.277-.687-.504-.125-.504 1.25m-3.079 4.583c.048 1.165.285 1.402.604.605.289-.722.253-1.585-.079-1.917s-.568.258-.525 1.312M51.66 87.823c-2.258 2.495-2.512 5.952-3.163 42.945-.526 29.912-.442 32.316 1.154 32.928 1.117.429 2.095.019 2.785-1.169 6.997-12.036 13.648-18.918 26.174-27.08l5.111-3.33.592-11.308c.326-6.22.277-15.584-.11-20.809l-.703-9.5-10.5-.564c-6.98-.374-11.573-1.129-13.7-2.25-4.082-2.15-5.594-2.123-7.64.137m109.414 21.588c-.807.972-.843 1.614-.115 2.063.58.359 1.324-.048 1.653-.905s1.07-1.266 1.647-.909c.613.379.753.169.336-.505-.951-1.54-2.1-1.456-3.521.256m-2.741 3.045c0 .801.383 1.22.85.931s.591-.944.274-1.456c-.808-1.308-1.124-1.161-1.124.525m4.167 37.102c-1.864 1.583-2.212 2.17-.918 1.549 1.859-.891 5.23-4.115 4.29-4.102-.204.003-1.722 1.151-3.372 2.553m-66.75 52.16c-2.612.216-4.75.48-4.75.589s-.9 4.92-2 10.693-2 10.637-2 10.808c0 .172 1.688.173 3.75.002 3.217-.266 3.794-.687 4.057-2.957.285-2.464.576-2.611 4.201-2.125 3.368.452 4.308.109 6.944-2.526 3.552-3.552 4.109-8.726 1.298-12.049-2.02-2.387-4.836-2.983-11.5-2.435m19.607.274c-3.211 1.295-5.357 4.993-5.357 9.231 0 6.241 4.917 9.497 10.13 6.708 1.441-.772 2.382-.751 3.373.072.757.628 2.641.996 4.187.819 2.224-.255 2.876-.895 3.126-3.072.189-1.641-.165-2.75-.877-2.75-1.189 0-.773-5.664.698-9.497.551-1.435-.01-1.631-3.965-1.388-2.534.156-4.922-.031-5.306-.416-.909-.909-3.323-.791-6.009.293m52.722 3.591c.048 1.165.285 1.402.604.605.289-.722.253-1.585-.079-1.917s-.568.258-.525 1.312m-69.936 2.328c-1.727 1.068-1.069 4.589.857 4.589 1.671 0 2.628-3.272 1.335-4.565-.468-.468-1.455-.479-2.192-.024m19.909.526c-1.32 1.591-.803 4.563.794 4.563.5 0 1.488-.698 2.196-1.55 1.057-1.274 1.019-1.817-.214-3.05-1.333-1.334-1.642-1.33-2.776.037M167.136 210c-.09 1.375-.395 3.625-.678 5l-.514 2.5 1.074-2.461c.591-1.354.896-3.604.678-5l-.396-2.539zm-10.057.583c.048 1.165.285 1.402.604.605.289-.722.253-1.585-.079-1.917s-.568.258-.525 1.312m-1 5c.048 1.165.285 1.402.604.605.289-.722.253-1.585-.079-1.917s-.568.258-.525 1.312"/><path fill="#1976D2" fill-opacity=".329" fill-rule="evenodd" d="M11 128v128h31.571c28.156 0 31.752-.181 33.242-1.67 1.214-1.214 1.331-1.782.428-2.083-1.476-.492-1.68-3.247-.241-3.247 1.443 0 1.233-3.725-.25-4.417-.987-.46-.977-.709.045-1.181.982-.454 1.26-4.063 1.151-14.936-.079-7.885.203-14.928.627-15.651s-.207-.458-1.401.59c-2.249 1.972-2.923 3.177-1.172 2.095.55-.34 1-.111 1 .508 0 .655-.802.872-1.916.519-1.054-.335-2.21-.131-2.571.451-1.274 2.063-10.736 6.143-15.573 6.716-8.233.975-8.25.926-7.468-20.65.752-20.751 2.443-29.3 7.816-39.509 4.077-7.747 18.18-21.938 26.212-26.377 5.402-2.985 5.65-3.426.836-1.488-1.118.45-1.429.29-.948-.489 1.304-2.11-2.652-.043-9.48 4.952-7.965 5.826-14.574 12.734-18.352 19.181-1.818 3.103-3.376 4.674-4.43 4.47-1.464-.284-1.626-3.793-1.626-35.3 0-27.585.293-35.679 1.387-38.272 2.025-4.801 3.932-5.43 9.164-3.023 3.155 1.452 7.357 2.198 14.449 2.564 5.68.293 10.317.998 10.735 1.632.516.784.739.745.75-.132.008-.686-1.448-1.866-3.235-2.623l-3.25-1.376 2.709-.725c1.49-.399 3.29-1.429 4-2.288 1.08-1.307 1.389.06 1.89 8.348l.599 9.911-.105-11.206c-.063-6.799-.545-11.646-1.225-12.326-.826-.826-1-.495-.663 1.267.601 3.146-1.291 4.578-7.843 5.933-4.078.843-6.794.808-11.344-.149-5.435-1.142-6.633-1.91-13.095-8.388-5.464-5.478-7.624-8.503-9.318-13.052-3.23-8.674-2.696-10.694 3.395-12.843 7.182-2.534 20.742-1.971 25.905 1.075 2.062 1.217 4.175 1.948 4.697 1.626.521-.322.824-.192.673.29-.151.481 1.71 3.102 4.137 5.824 3.926 4.404 5.046 4.584 1.288.207-1.848-2.153-1.75-17.734.12-19.068.897-.641.881-.964-.07-1.349-1.62-.658-1.62-4.024 0-4.682.944-.382.883-.789-.25-1.659s-1.194-1.277-.25-1.659c.926-.376 1.25-4.628 1.25-16.424V0H11zm75.872-82.25c-1.243 1.586-1.208 1.621.378.378C88.916 44.821 89.445 44 88.622 44c-.207 0-.995.788-1.75 1.75m-1.793 3.378c-.043.895.708 2.245 1.671 3 1.521 1.192 1.604 1.175.634-.128-.613-.825-1.365-2.175-1.671-3-.464-1.255-.568-1.234-.634.128m1.276 8.39c-.321.835-.021 2.874.666 4.532 1.657 4.002 2.283 3.216.725-.911-1.018-2.699-.974-3.383.268-4.169 1.045-.66 1.106-.944.205-.955-.705-.008-1.544.668-1.864 1.503M87 66.544c0 .116.6.709 1.333 1.318.997.827 1.334.773 1.334-.211 0-.725-.6-1.318-1.334-1.318-.733 0-1.333.095-1.333.211M81 73.5c1.866 1.925 3.617 3.5 3.892 3.5S83.866 75.425 82 73.5 78.383 70 78.108 70s1.026 1.575 2.892 3.5m14.624.039c-.965 2.514-.681 3.163.498 1.136.584-1.004.851-2.036.593-2.293-.257-.258-.749.263-1.091 1.157M93.232 86c0 1.925.206 2.713.457 1.75.252-.963.252-2.537 0-3.5-.251-.963-.457-.175-.457 1.75m-17.419 2.683c.721.289 1.584.253 1.916-.079s-.258-.568-1.312-.525c-1.165.048-1.402.285-.604.604m9.53 13.817c.003 4.4.179 6.076.39 3.724s.209-5.952-.006-8-.388-.124-.384 4.276m7.815-3.5c0 1.375.227 1.938.504 1.25.278-.687.278-1.812 0-2.5-.277-.687-.504-.125-.504 1.25m-7.793 22.5c.003 5.5.171 7.622.373 4.716.203-2.905.201-7.405-.004-10s-.371-.216-.369 5.284m-6.924 16.055c-1.83 1.467-1.798 1.487.559.365 3.061-1.458 3.628-1.92 2.358-1.92-.537 0-1.849.7-2.917 1.555m1.539 70.969c-.696.838-1.071 1.718-.835 1.955.237.236.98-.449 1.651-1.524 1.452-2.325.968-2.58-.816-.431M88.158 212c0 1.375.227 1.938.504 1.25.278-.687.278-1.812 0-2.5-.277-.687-.504-.125-.504 1.25m-1 5c0 1.375.227 1.938.504 1.25.278-.687.278-1.812 0-2.5-.277-.687-.504-.125-.504 1.25m-1.079 4.583c.048 1.165.285 1.402.604.605.289-.722.253-1.585-.079-1.917s-.568.258-.525 1.312"/></svg>